<?xml version="1.0" encoding="UTF-8" standalone="no"?>
<!-- Uploaded to: SVG Repo, www.svgrepo.com, Generator: SVG Repo Mixer Tools -->

<svg
   version="1.0"
   id="Layer_1"
   width="800px"
   height="800px"
   viewBox="0 0 64 64"
   enable-background="new 0 0 64 64"
   xml:space="preserve"
   sodipodi:docname="location.svg"
   inkscape:version="1.1.2 (b8e25be833, 2022-02-05)"
   xmlns:inkscape="http://www.inkscape.org/namespaces/inkscape"
   xmlns:sodipodi="http://sodipodi.sourceforge.net/DTD/sodipodi-0.dtd"
   xmlns="http://www.w3.org/2000/svg"
   xmlns:svg="http://www.w3.org/2000/svg"><defs
   id="defs7" /><sodipodi:namedview
   id="namedview5"
   pagecolor="#505050"
   bordercolor="#eeeeee"
   borderopacity="1"
   inkscape:pageshadow="0"
   inkscape:pageopacity="0"
   inkscape:pagecheckerboard="0"
   showgrid="false"
   inkscape:zoom="0.63875"
   inkscape:cx="400.78278"
   inkscape:cy="400.78278"
   inkscape:window-width="1366"
   inkscape:window-height="697"
   inkscape:window-x="-8"
   inkscape:window-y="-8"
   inkscape:window-maximized="1"
   inkscape:current-layer="Layer_1" />
<path
   fill="#231F20"
   d="M32,0C18.746,0,8,10.746,8,24c0,5.219,1.711,10.008,4.555,13.93c0.051,0.094,0.059,0.199,0.117,0.289l16,24  C29.414,63.332,30.664,64,32,64s2.586-0.668,3.328-1.781l16-24c0.059-0.09,0.066-0.195,0.117-0.289C54.289,34.008,56,29.219,56,24  C56,10.746,45.254,0,32,0z M32,32c-4.418,0-8-3.582-8-8s3.582-8,8-8s8,3.582,8,8S36.418,32,32,32z"
   id="path2"
   style="fill:#ffffff" />
</svg>
