<?xml version="1.0" encoding="UTF-8" standalone="no"?>
<!-- Uploaded to: SVG Repo, www.svgrepo.com, Generator: SVG Repo Mixer Tools -->

<svg
   width="800px"
   height="800px"
   viewBox="0 0 24 24"
   version="1.1"
   id="svg8"
   sodipodi:docname="team.svg"
   inkscape:version="1.1.2 (b8e25be833, 2022-02-05)"
   xmlns:inkscape="http://www.inkscape.org/namespaces/inkscape"
   xmlns:sodipodi="http://sodipodi.sourceforge.net/DTD/sodipodi-0.dtd"
   xmlns="http://www.w3.org/2000/svg"
   xmlns:svg="http://www.w3.org/2000/svg">
  <defs
     id="defs12" />
  <sodipodi:namedview
     id="namedview10"
     pagecolor="#505050"
     bordercolor="#eeeeee"
     borderopacity="1"
     inkscape:pageshadow="0"
     inkscape:pageopacity="0"
     inkscape:pagecheckerboard="0"
     showgrid="false"
     showguides="false"
     inkscape:zoom="0.45166446"
     inkscape:cx="433.95046"
     inkscape:cy="296.68042"
     inkscape:window-width="1366"
     inkscape:window-height="697"
     inkscape:window-x="-8"
     inkscape:window-y="-8"
     inkscape:window-maximized="1"
     inkscape:current-layer="svg8" />
  <path
     fill="none"
     d="M 0,0 H 24 V 24 H 0 Z"
     id="path2" />
  <path
     d="m 12,11 a 5,5 0 0 1 5,5 v 6 H 7 v -6 a 5,5 0 0 1 5,-5 z m -6.712,3.006 a 6.983,6.983 0 0 0 -0.28,1.65 L 5,16 v 6 H 2 v -4.5 a 3.5,3.5 0 0 1 3.119,-3.48 l 0.17,-0.014 z m 13.424,0 A 3.501,3.501 0 0 1 22,17.5 V 22 h -3 v -6 c 0,-0.693 -0.1,-1.362 -0.288,-1.994 z M 5.5,8 a 2.5,2.5 0 1 1 0,5 2.5,2.5 0 0 1 0,-5 z m 13,0 a 2.5,2.5 0 1 1 0,5 2.5,2.5 0 0 1 0,-5 z M 12,2 a 4,4 0 1 1 0,8 4,4 0 0 1 0,-8 z"
     id="path4"
     style="fill:#000000;fill-opacity:0.60000002" />
</svg>
