<?xml version="1.0" encoding="UTF-8" standalone="no"?>
<!-- Uploaded to: SVG Repo, www.svgrepo.com, Generator: SVG Repo Mixer Tools -->

<svg
   fill="#000000"
   width="800px"
   height="800px"
   viewBox="0 0 32 32"
   version="1.1"
   id="svg6"
   sodipodi:docname="2.svg"
   inkscape:version="1.2 (dc2aedaf03, 2022-05-15)"
   xmlns:inkscape="http://www.inkscape.org/namespaces/inkscape"
   xmlns:sodipodi="http://sodipodi.sourceforge.net/DTD/sodipodi-0.dtd"
   xmlns="http://www.w3.org/2000/svg"
   xmlns:svg="http://www.w3.org/2000/svg">
  <defs
     id="defs10" />
  <sodipodi:namedview
     id="namedview8"
     pagecolor="#505050"
     bordercolor="#eeeeee"
     borderopacity="1"
     inkscape:showpageshadow="0"
     inkscape:pageopacity="0"
     inkscape:pagecheckerboard="0"
     inkscape:deskcolor="#505050"
     showgrid="false"
     inkscape:zoom="0.67375"
     inkscape:cx="228.57143"
     inkscape:cy="402.22635"
     inkscape:window-width="1360"
     inkscape:window-height="697"
     inkscape:window-x="-8"
     inkscape:window-y="-8"
     inkscape:window-maximized="1"
     inkscape:current-layer="svg6" />
  <title
     id="title2">number11</title>
  <ellipse
     style="fill:#ffffff;stroke:#ffffff;stroke-width:0.04"
     id="path286"
     cx="15.762523"
     cy="16.474955"
     rx="6.6790352"
     ry="8.8756962" />
  <ellipse
     style="fill:#ffffff;stroke:#ffffff;stroke-width:0.04"
     id="path290"
     cx="15.910946"
     cy="14.753247"
     rx="0.89053804"
     ry="0.44526902" />
  <path
     d="M16 3c-7.18 0-13 5.82-13 13s5.82 13 13 13 13-5.82 13-13-5.82-13-13-13zM20.342 20.426v2.297h-8.656c0.093-0.867 0.374-1.688 0.843-2.465 0.468-0.776 1.393-1.807 2.774-3.090 1.111-1.037 1.793-1.74 2.045-2.109 0.34-0.51 0.51-1.014 0.51-1.512 0-0.551-0.147-0.975-0.441-1.271s-0.7-0.444-1.219-0.444c-0.512 0-0.92 0.156-1.223 0.467s-0.478 0.827-0.523 1.549l-2.469-0.247c0.146-1.359 0.605-2.335 1.378-2.928s1.739-0.888 2.898-0.888c1.27 0 2.268 0.343 2.994 1.028s1.089 1.538 1.089 2.557c0 0.58-0.104 1.132-0.312 1.656s-0.537 1.074-0.988 1.647c-0.299 0.38-0.839 0.929-1.621 1.644-0.781 0.714-1.276 1.188-1.484 1.422s-0.376 0.463-0.505 0.686h4.91z"
     id="path4"
     style="fill:#0c465f;fill-opacity:1" />
</svg>
