<?xml version="1.0" encoding="UTF-8" standalone="no"?>
<!-- Uploaded to: SVG Repo, www.svgrepo.com, Generator: SVG Repo Mixer Tools -->

<svg
   fill="#000000"
   height="800px"
   width="800px"
   version="1.1"
   id="Capa_1"
   viewBox="0 0 491.4 491.4"
   xml:space="preserve"
   sodipodi:docname="roi.svg"
   inkscape:version="1.1.2 (b8e25be833, 2022-02-05)"
   xmlns:inkscape="http://www.inkscape.org/namespaces/inkscape"
   xmlns:sodipodi="http://sodipodi.sourceforge.net/DTD/sodipodi-0.dtd"
   xmlns="http://www.w3.org/2000/svg"
   xmlns:svg="http://www.w3.org/2000/svg"><defs
   id="defs9" /><sodipodi:namedview
   id="namedview7"
   pagecolor="#505050"
   bordercolor="#eeeeee"
   borderopacity="1"
   inkscape:pageshadow="0"
   inkscape:pageopacity="0"
   inkscape:pagecheckerboard="0"
   showgrid="false"
   inkscape:zoom="0.63875"
   inkscape:cx="400.78278"
   inkscape:cy="400.78278"
   inkscape:window-width="1360"
   inkscape:window-height="697"
   inkscape:window-x="-8"
   inkscape:window-y="-8"
   inkscape:window-maximized="1"
   inkscape:current-layer="Capa_1" />
<g
   id="g4"
   style="fill:#0c465f;fill-opacity:1">
	<path
   d="M89.6,224.6c11.6,0,21,9.4,21,21c0,11.6-9.4,21-21,21c-11.6,0-21-9.4-21-21C68.5,234,77.9,224.6,89.6,224.6z M34.7,369.4   H282c-0.8-2.6-1.2-5.3-1.2-8.1v-21.5H70.3c0.4-2.1,0.6-4.2,0.6-6.5c0-19.4-15.7-35.1-35.1-35.1c-2.1,0-4.2,0.2-6.2,0.6V192.4   c2,0.4,4.1,0.6,6.2,0.6c19.4,0,35.1-15.7,35.1-35.1c0-2.2-0.2-4.4-0.6-6.5h257.4c-0.7,2.7-1.1,5.6-1.1,8.6   c0,15.3,9.9,28.3,23.6,33.1c1.7-14.2,13.8-25.3,28.4-25.3H400v-11.3c0-19.1-15.5-34.6-34.7-34.6H34.7C15.6,121.9,0,137.4,0,156.5   v178.3C0,353.8,15.6,369.4,34.7,369.4z M309.5,246.5c-4.5,0-8.1,3.6-8.1,8.1v106.7c0,4.5,3.6,8.1,8.1,8.1h35.7   c4.5,0,8.1-3.6,8.1-8.1V254.6c0-4.5-3.6-8.1-8.1-8.1H309.5z M414.2,188.3h-35.7c-4.5,0-8.1,3.6-8.1,8.1v164.9   c0,4.5,3.6,8.1,8.1,8.1h35.7c4.5,0,8.1-3.6,8.1-8.1V196.4C422.3,192,418.7,188.3,414.2,188.3z M483.3,283.7h-35.7   c-4.5,0-8.1,3.6-8.1,8.1v69.6c0,4.5,3.6,8.1,8.1,8.1h35.7c4.5,0,8.1-3.6,8.1-8.1v-69.6C491.4,287.3,487.7,283.7,483.3,283.7z    M200,169.7c41.9,0,75.9,34.1,75.9,75.9s-34.1,75.9-75.9,75.9c-41.9,0-75.9-34.1-75.9-75.9S158.1,169.7,200,169.7z M150.5,218.2   h14.9c3.1-10,7.5-18.1,12.1-24.5C166.1,198.6,156.5,207.3,150.5,218.2z M162.7,261.6c-0.8-5-1.3-10.3-1.3-16s0.5-11.1,1.3-16h-17   c-1.5,5.1-2.3,10.5-2.3,16c0,5.6,0.8,11,2.3,16H162.7z M177.6,297.6c-4.6-6.4-9.1-14.6-12.1-24.5h-14.9   C156.5,283.9,166.1,292.6,177.6,297.6z M194.3,273h-16.8c4.5,12.4,11.3,21.1,16.8,26.7V273z M194.3,229.6h-20   c-0.9,4.9-1.5,10.3-1.5,16c0,5.8,0.6,11.1,1.5,16h20V229.6z M194.3,191.4c-5.5,5.5-12.4,14.3-16.9,26.8h16.9V191.4z M249.4,273   h-14.9c-3.1,10-7.5,18.1-12.1,24.5C233.9,292.6,243.4,283.9,249.4,273z M237.2,229.6c0.8,5,1.3,10.3,1.3,16c0,5.7-0.5,11.1-1.3,16   h17c1.5-5.1,2.3-10.5,2.3-16c0-5.6-0.8-11-2.3-16H237.2z M222.4,193.6c4.6,6.4,9.1,14.6,12.1,24.5h14.9   C243.4,207.3,233.9,198.6,222.4,193.6z M205.7,218.2h16.8c-4.5-12.4-11.3-21.1-16.8-26.7V218.2z M205.7,261.6h20   c0.9-4.9,1.5-10.3,1.5-16c0-5.8-0.6-11.1-1.5-16h-20V261.6z M205.7,299.8c5.5-5.5,12.4-14.3,16.9-26.8h-16.9V299.8z"
   id="path2"
   style="fill:#0c465f;fill-opacity:1" />
</g>
</svg>
