<?xml version="1.0" encoding="UTF-8" standalone="no"?>
<!-- Uploaded to: SVG Repo, www.svgrepo.com, Generator: SVG Repo Mixer Tools -->

<svg
   fill="#000000"
   width="800px"
   height="800px"
   viewBox="0 0 1920 1920"
   version="1.1"
   id="svg4"
   sodipodi:docname="calculator.svg"
   inkscape:version="1.1.2 (b8e25be833, 2022-02-05)"
   xmlns:inkscape="http://www.inkscape.org/namespaces/inkscape"
   xmlns:sodipodi="http://sodipodi.sourceforge.net/DTD/sodipodi-0.dtd"
   xmlns="http://www.w3.org/2000/svg"
   xmlns:svg="http://www.w3.org/2000/svg">
  <defs
     id="defs8" />
  <sodipodi:namedview
     id="namedview6"
     pagecolor="#505050"
     bordercolor="#eeeeee"
     borderopacity="1"
     inkscape:pageshadow="0"
     inkscape:pageopacity="0"
     inkscape:pagecheckerboard="0"
     showgrid="false"
     inkscape:zoom="0.1596875"
     inkscape:cx="1027.0059"
     inkscape:cy="344.4227"
     inkscape:window-width="1360"
     inkscape:window-height="697"
     inkscape:window-x="-8"
     inkscape:window-y="-8"
     inkscape:window-maximized="1"
     inkscape:current-layer="svg4" />
  <path
     d="m 575.18591,150.29354 h 809.70639 c 149.0628,0 269.9022,120.83942 269.9022,269.90215 V 1499.8042 c 0,149.0628 -120.8394,269.9022 -269.9022,269.9022 H 575.18591 c -149.06274,0 -269.90216,-120.8394 -269.90216,-269.9022 V 420.19569 c 0,-149.06273 120.83942,-269.90215 269.90216,-269.90215 z m 89.96766,179.93449 c -99.37544,0 -179.93533,80.55989 -179.93533,179.93533 0,99.3746 80.55989,179.93449 179.93533,179.93449 h 629.77113 c 99.3754,0 179.9353,-80.55989 179.9353,-179.93449 0,-99.37544 -80.5599,-179.93533 -179.9353,-179.93533 z m -89.96766,539.80431 c -49.6873,0 -89.96767,40.28037 -89.96767,89.96759 0,49.68727 40.28037,89.96767 89.96767,89.96767 h 89.96766 c 49.6873,0 89.96683,-40.2804 89.96683,-89.96767 0,-49.68722 -40.27953,-89.96759 -89.96683,-89.96759 z m 359.86981,0 c -49.6873,0 -89.96765,40.28037 -89.96765,89.96759 0,49.68727 40.27951,89.96767 89.96765,89.96767 h 89.96678 c 49.6873,0 89.9677,-40.2804 89.9677,-89.96767 0,-49.68722 -40.2795,-89.96759 -89.9677,-89.96759 z m 359.86898,0 c -49.6873,0 -89.9669,40.28037 -89.9669,89.96759 0,49.68727 40.2796,89.96767 89.9669,89.96767 h 89.9676 c 49.6874,0 89.9677,-40.2804 89.9677,-89.96767 0,-49.68722 -40.2803,-89.96759 -89.9677,-89.96759 z M 575.18591,1139.9344 c -49.6873,0 -89.96767,40.2804 -89.96767,89.9677 0,49.6873 40.28037,89.9676 89.96767,89.9676 h 89.96766 c 49.6873,0 89.96683,-40.2803 89.96683,-89.9676 0,-49.6873 -40.27953,-89.9677 -89.96683,-89.9677 z m 359.86981,0 c -49.6873,0 -89.96765,40.2804 -89.96765,89.9677 0,49.6873 40.27951,89.9676 89.96765,89.9676 h 89.96678 c 49.6873,0 89.9677,-40.2803 89.9677,-89.9676 0,-49.6873 -40.2795,-89.9677 -89.9677,-89.9677 z m 359.86898,0 c -49.6873,0 -89.9669,40.2804 -89.9669,89.9677 0,49.6873 40.2796,89.9676 89.9669,89.9676 h 89.9676 c 49.6874,0 89.9677,-40.2803 89.9677,-89.9676 0,-49.6873 -40.2803,-89.9677 -89.9677,-89.9677 z m -719.73879,269.9022 c -49.6873,0 -89.96767,40.2803 -89.96767,89.9676 0,49.6874 40.28037,89.9677 89.96767,89.9677 h 89.96766 c 49.6873,0 89.96683,-40.2803 89.96683,-89.9677 0,-49.6873 -40.27953,-89.9676 -89.96683,-89.9676 z m 359.86981,0 c -49.6873,0 -89.96765,40.2803 -89.96765,89.9676 0,49.6874 40.27951,89.9677 89.96765,89.9677 h 89.96678 c 49.6873,0 89.9677,-40.2803 89.9677,-89.9677 0,-49.6873 -40.2795,-89.9676 -89.9677,-89.9676 z m 359.86898,0 c -49.6873,0 -89.9669,40.2803 -89.9669,89.9676 0,49.6874 40.2796,89.9677 89.9669,89.9677 h 89.9676 c 49.6874,0 89.9677,-40.2803 89.9677,-89.9677 0,-49.6873 -40.2803,-89.9676 -89.9677,-89.9676 z"
     fill-rule="evenodd"
     id="path2"
     style="fill:#0c465f;fill-opacity:1;stroke-width:0.843445" />
</svg>
