<?xml version="1.0" encoding="UTF-8" standalone="no"?>
<!-- Uploaded to: SVG Repo, www.svgrepo.com, Generator: SVG Repo Mixer Tools -->

<svg
   fill="#000000"
   width="800px"
   height="800px"
   viewBox="0 0 32 32"
   version="1.1"
   id="svg6"
   sodipodi:docname="Calendar.svg"
   inkscape:version="1.2 (dc2aedaf03, 2022-05-15)"
   xmlns:inkscape="http://www.inkscape.org/namespaces/inkscape"
   xmlns:sodipodi="http://sodipodi.sourceforge.net/DTD/sodipodi-0.dtd"
   xmlns="http://www.w3.org/2000/svg"
   xmlns:svg="http://www.w3.org/2000/svg">
  <defs
     id="defs10" />
  <sodipodi:namedview
     id="namedview8"
     pagecolor="#505050"
     bordercolor="#eeeeee"
     borderopacity="1"
     inkscape:showpageshadow="0"
     inkscape:pageopacity="0"
     inkscape:pagecheckerboard="0"
     inkscape:deskcolor="#505050"
     showgrid="false"
     inkscape:zoom="0.67375"
     inkscape:cx="313.17254"
     inkscape:cy="400.74212"
     inkscape:window-width="1360"
     inkscape:window-height="697"
     inkscape:window-x="-8"
     inkscape:window-y="-8"
     inkscape:window-maximized="1"
     inkscape:current-layer="svg6" />
  <title
     id="title2">calendar-check</title>
  <path
     d="M28 4.75h-0.75v-2.75c0-0.69-0.56-1.25-1.25-1.25s-1.25 0.56-1.25 1.25v0 2.75h-17.5v-2.75c0-0.69-0.56-1.25-1.25-1.25s-1.25 0.56-1.25 1.25v0 2.75h-0.75c-1.794 0.002-3.248 1.456-3.25 3.25v19.998c0.002 1.794 1.456 3.248 3.25 3.25h24c1.794-0.001 3.249-1.456 3.25-3.25v-19.998c-0.002-1.794-1.456-3.248-3.25-3.25h-0zM4 7.25h24c0.414 0 0.75 0.336 0.75 0.75v2.75h-25.5v-2.75c0.001-0.414 0.336-0.749 0.75-0.75h0zM28 28.748h-24c-0.414-0-0.75-0.336-0.75-0.75v-14.748h25.5v14.748c-0 0.414-0.336 0.75-0.75 0.75v0zM19.57 16.682l-5.86 6.405-1.323-1.313c-0.226-0.223-0.536-0.361-0.878-0.361-0.69 0-1.25 0.56-1.25 1.25 0 0.345 0.14 0.658 0.366 0.884v0l2.247 2.23 0.022 0.015 0.015 0.021c0.074 0.061 0.159 0.114 0.25 0.156l0.007 0.003c0.037 0.026 0.079 0.053 0.123 0.077l0.007 0.003c0.135 0.056 0.292 0.089 0.457 0.089 0.175 0 0.341-0.037 0.491-0.103l-0.008 0.003c0.053-0.031 0.098-0.061 0.14-0.094l-0.003 0.002c0.102-0.050 0.189-0.11 0.268-0.179l-0.001 0.001 0.015-0.023 0.020-0.014 6.738-7.365c0.203-0.221 0.328-0.518 0.328-0.844 0-0.69-0.559-1.25-1.25-1.25-0.365 0-0.693 0.156-0.921 0.405l-0.001 0.001z"
     id="path4"
     style="fill:#0c465f;fill-opacity:1" />
</svg>
