<?xml version="1.0" encoding="UTF-8" standalone="no"?>
<!-- Created with Inkscape (http://www.inkscape.org/) -->

<svg
   width="210mm"
   height="297mm"
   viewBox="0 0 210 297"
   version="1.1"
   id="svg5"
   xml:space="preserve"
   inkscape:version="1.2 (dc2aedaf03, 2022-05-15)"
   sodipodi:docname="chat.svg"
   xmlns:inkscape="http://www.inkscape.org/namespaces/inkscape"
   xmlns:sodipodi="http://sodipodi.sourceforge.net/DTD/sodipodi-0.dtd"
   xmlns="http://www.w3.org/2000/svg"
   xmlns:svg="http://www.w3.org/2000/svg"><sodipodi:namedview
     id="namedview7"
     pagecolor="#505050"
     bordercolor="#eeeeee"
     borderopacity="1"
     inkscape:showpageshadow="0"
     inkscape:pageopacity="0"
     inkscape:pagecheckerboard="0"
     inkscape:deskcolor="#505050"
     inkscape:document-units="mm"
     showgrid="false"
     inkscape:zoom="0.67906258"
     inkscape:cx="-404.97004"
     inkscape:cy="220.89275"
     inkscape:window-width="1824"
     inkscape:window-height="943"
     inkscape:window-x="1358"
     inkscape:window-y="-8"
     inkscape:window-maximized="1"
     inkscape:current-layer="layer1" /><defs
     id="defs2" /><g
     inkscape:label="Layer 1"
     inkscape:groupmode="layer"
     id="layer1"><path
       id="path6216"
       style="fill:#0c465f;fill-opacity:0.6;stroke-width:0.299361"
       d="M 30.90804,28.44325 A 50,50 0 0 0 -19.092011,78.442782 50,50 0 0 0 30.90804,128.44283 50,50 0 0 0 80.908084,78.442782 50,50 0 0 0 30.90804,28.44325 Z m 3.48402,19.990511 c 15.06188,0 27.314096,10.822587 27.314096,24.126176 0,4.634772 -1.489527,9.125429 -4.313432,13.012126 0.534735,5.746581 1.953163,10.006005 4.005957,12.019421 0.31937,0.313244 0.399112,0.791334 0.197404,1.188041 -0.179646,0.35343 -0.546034,0.571025 -0.939994,0.571025 -0.04833,0 -0.0979,-0.0041 -0.147278,-0.01034 -0.255286,-0.03503 -5.410518,-0.769667 -10.606588,-2.714046 3.457393,-4.292677 5.500956,-9.545803 5.500956,-15.219226 0,-14.440128 -13.196181,-26.187032 -29.415771,-26.187032 -4.85359,0 -9.43316,1.059319 -13.472571,2.920235 5.101521,-6.005214 13.214301,-9.706384 21.877221,-9.706384 z m -8.40465,8.847005 c 15.06186,0 27.315641,10.822601 27.315641,24.126176 0,13.303575 -12.253801,24.126178 -27.314611,24.126178 -3.85556,0 -7.579,-0.69663 -11.077361,-2.07016 -6.1825399,3.47453 -14.67429988,4.67377 -15.04093988,4.72426 -0.0494,0.007 -0.0984,0.0103 -0.14676,0.0103 -0.39396,0 -0.76087002,-0.2176 -0.94052002,-0.57103 -0.2017,-0.3967 -0.12144,-0.8748 0.19793,-1.18804 2.05173,-2.01341 3.46965,-6.27285 4.00544,-12.020456 -2.82390998,-3.885662 -4.31344,-8.375295 -4.31344,-13.011092 0,-13.302545 12.2537999,-24.126176 27.3146209,-24.126176 z" /><g
       id="g1095"
       style="fill:#000000;fill-opacity:0.6"
       transform="matrix(1.0505611,0,0,1.0304083,-147.82824,-11.820369)">
	
	
</g><g
       id="g1097"
       transform="matrix(1.0505611,0,0,1.0304083,-147.82824,-11.820369)">
</g><g
       id="g1099"
       transform="matrix(1.0505611,0,0,1.0304083,-147.82824,-11.820369)">
</g><g
       id="g1101"
       transform="matrix(1.0505611,0,0,1.0304083,-147.82824,-11.820369)">
</g><g
       id="g1103"
       transform="matrix(1.0505611,0,0,1.0304083,-147.82824,-11.820369)">
</g><g
       id="g1105"
       transform="matrix(1.0505611,0,0,1.0304083,-147.82824,-11.820369)">
</g><g
       id="g1107"
       transform="matrix(1.0505611,0,0,1.0304083,-147.82824,-11.820369)">
</g><g
       id="g1109"
       transform="matrix(1.0505611,0,0,1.0304083,-147.82824,-11.820369)">
</g><g
       id="g1111"
       transform="matrix(1.0505611,0,0,1.0304083,-147.82824,-11.820369)">
</g><g
       id="g1113"
       transform="matrix(1.0505611,0,0,1.0304083,-147.82824,-11.820369)">
</g><g
       id="g1115"
       transform="matrix(1.0505611,0,0,1.0304083,-147.82824,-11.820369)">
</g><g
       id="g1117"
       transform="matrix(1.0505611,0,0,1.0304083,-147.82824,-11.820369)">
</g><g
       id="g1119"
       transform="matrix(1.0505611,0,0,1.0304083,-147.82824,-11.820369)">
</g><g
       id="g1121"
       transform="matrix(1.0505611,0,0,1.0304083,-147.82824,-11.820369)">
</g><g
       id="g1123"
       transform="matrix(1.0505611,0,0,1.0304083,-147.82824,-11.820369)">
</g><g
       id="g1125"
       transform="matrix(1.0505611,0,0,1.0304083,-147.82824,-11.820369)">
</g></g></svg>
