<?xml version="1.0" encoding="UTF-8" standalone="no"?>
<!-- Generator: Adobe Illustrator 18.0.0, SVG Export Plug-In . SVG Version: 6.00 Build 0)  -->

<svg
   version="1.1"
   id="Capa_1"
   x="0px"
   y="0px"
   viewBox="0 0 60 60"
   style="enable-background:new 0 0 60 60;"
   xml:space="preserve"
   sodipodi:docname="chat.dark.svg"
   inkscape:version="1.2 (dc2aedaf03, 2022-05-15)"
   xmlns:inkscape="http://www.inkscape.org/namespaces/inkscape"
   xmlns:sodipodi="http://sodipodi.sourceforge.net/DTD/sodipodi-0.dtd"
   xmlns="http://www.w3.org/2000/svg"
   xmlns:svg="http://www.w3.org/2000/svg"><defs
   id="defs1130" /><sodipodi:namedview
   id="namedview1128"
   pagecolor="#505050"
   bordercolor="#eeeeee"
   borderopacity="1"
   inkscape:showpageshadow="0"
   inkscape:pageopacity="0"
   inkscape:pagecheckerboard="0"
   inkscape:deskcolor="#505050"
   showgrid="false"
   inkscape:zoom="8.6"
   inkscape:cx="30"
   inkscape:cy="30"
   inkscape:window-width="1366"
   inkscape:window-height="697"
   inkscape:window-x="-8"
   inkscape:window-y="-8"
   inkscape:window-maximized="1"
   inkscape:current-layer="Capa_1" />
<g
   id="g1095"
   style="fill:#000000;fill-opacity:0.60000002">
	<path
   d="M26,9.586C11.664,9.586,0,20.09,0,33c0,4.499,1.418,8.856,4.106,12.627c-0.51,5.578-1.86,9.712-3.813,11.666   c-0.304,0.304-0.38,0.768-0.188,1.153C0.276,58.789,0.625,59,1,59c0.046,0,0.093-0.003,0.14-0.01   c0.349-0.049,8.432-1.213,14.317-4.585c3.33,1.333,6.874,2.009,10.544,2.009c14.336,0,26-10.503,26-23.414S40.337,9.586,26,9.586z"
   id="path1091"
   style="fill:#000000;fill-opacity:0.60000002" />
	<path
   d="M55.894,37.042C58.582,33.27,60,28.912,60,24.414C60,11.503,48.337,1,34,1c-8.246,0-15.968,3.592-20.824,9.42   C17.021,8.614,21.38,7.586,26,7.586c15.439,0,28,11.4,28,25.414c0,5.506-1.945,10.604-5.236,14.77   c4.946,1.887,9.853,2.6,10.096,2.634c0.047,0.006,0.094,0.01,0.14,0.01c0.375,0,0.724-0.211,0.895-0.554   c0.192-0.385,0.116-0.849-0.188-1.153C57.753,46.753,56.403,42.619,55.894,37.042z"
   id="path1093"
   style="fill:#000000;fill-opacity:0.60000002" />
</g>
<g
   id="g1097">
</g>
<g
   id="g1099">
</g>
<g
   id="g1101">
</g>
<g
   id="g1103">
</g>
<g
   id="g1105">
</g>
<g
   id="g1107">
</g>
<g
   id="g1109">
</g>
<g
   id="g1111">
</g>
<g
   id="g1113">
</g>
<g
   id="g1115">
</g>
<g
   id="g1117">
</g>
<g
   id="g1119">
</g>
<g
   id="g1121">
</g>
<g
   id="g1123">
</g>
<g
   id="g1125">
</g>
</svg>
