<?xml version="1.0" encoding="UTF-8" standalone="no"?>
<!-- Generator: Adobe Illustrator 16.0.0, SVG Export Plug-In . SVG Version: 6.00 Build 0)  -->

<svg
   version="1.1"
   id="Capa_1"
   x="0px"
   y="0px"
   width="956.699px"
   height="956.699px"
   viewBox="0 0 956.699 956.699"
   style="enable-background:new 0 0 956.699 956.699;"
   xml:space="preserve"
   sodipodi:docname="cloud-svgrepo-com.svg"
   inkscape:version="1.2 (dc2aedaf03, 2022-05-15)"
   xmlns:inkscape="http://www.inkscape.org/namespaces/inkscape"
   xmlns:sodipodi="http://sodipodi.sourceforge.net/DTD/sodipodi-0.dtd"
   xmlns="http://www.w3.org/2000/svg"
   xmlns:svg="http://www.w3.org/2000/svg"><defs
   id="defs1126" /><sodipodi:namedview
   id="namedview1124"
   pagecolor="#505050"
   bordercolor="#eeeeee"
   borderopacity="1"
   inkscape:showpageshadow="0"
   inkscape:pageopacity="0"
   inkscape:pagecheckerboard="0"
   inkscape:deskcolor="#505050"
   showgrid="false"
   inkscape:zoom="0.53935461"
   inkscape:cx="478.34949"
   inkscape:cy="478.34949"
   inkscape:window-width="1366"
   inkscape:window-height="697"
   inkscape:window-x="-8"
   inkscape:window-y="-8"
   inkscape:window-maximized="1"
   inkscape:current-layer="Capa_1" />
<g
   id="g1091"
   style="fill:#00e1ff;fill-opacity:1">
	<path
   d="M782.699,413.199c-0.199,0-0.299,0-0.5,0c-7.699-121.7-108.898-218-232.5-218c-114.099,0-209,82-229.099,190.2   c-2.601-0.1-5.3-0.2-7.9-0.2c-85,0-156.7,56.3-180.1,133.6c-3.6-0.299-7.3-0.5-11-0.5c-67.1,0-121.6,54.4-121.6,121.6   C0,707.1,54.4,761.5,121.5,761.5c1,0,661.1,0,661.1,0c96.201,0,174.1-78,174.1-174.102   C956.699,491.299,878.9,413.199,782.699,413.199z"
   id="path1089"
   style="fill:#00e1ff;fill-opacity:1" />
</g>
<g
   id="g1093">
</g>
<g
   id="g1095">
</g>
<g
   id="g1097">
</g>
<g
   id="g1099">
</g>
<g
   id="g1101">
</g>
<g
   id="g1103">
</g>
<g
   id="g1105">
</g>
<g
   id="g1107">
</g>
<g
   id="g1109">
</g>
<g
   id="g1111">
</g>
<g
   id="g1113">
</g>
<g
   id="g1115">
</g>
<g
   id="g1117">
</g>
<g
   id="g1119">
</g>
<g
   id="g1121">
</g>
</svg>
