<?xml version="1.0" encoding="UTF-8" standalone="no"?>
<!-- Uploaded to: SVG Repo, www.svgrepo.com, Generator: SVG Repo Mixer Tools -->

<svg
   version="1.1"
   id="_x32_"
   width="800px"
   height="800px"
   viewBox="0 0 512 512"
   xml:space="preserve"
   sodipodi:docname="euro.dark.svg"
   inkscape:version="1.2 (dc2aedaf03, 2022-05-15)"
   xmlns:inkscape="http://www.inkscape.org/namespaces/inkscape"
   xmlns:sodipodi="http://sodipodi.sourceforge.net/DTD/sodipodi-0.dtd"
   xmlns="http://www.w3.org/2000/svg"
   xmlns:svg="http://www.w3.org/2000/svg"><defs
   id="defs11" /><sodipodi:namedview
   id="namedview9"
   pagecolor="#505050"
   bordercolor="#eeeeee"
   borderopacity="1"
   inkscape:showpageshadow="0"
   inkscape:pageopacity="0"
   inkscape:pagecheckerboard="0"
   inkscape:deskcolor="#505050"
   showgrid="false"
   inkscape:zoom="0.67375"
   inkscape:cx="142.48609"
   inkscape:cy="403.71058"
   inkscape:window-width="1360"
   inkscape:window-height="697"
   inkscape:window-x="-8"
   inkscape:window-y="-8"
   inkscape:window-maximized="1"
   inkscape:current-layer="_x32_" />
<style
   type="text/css"
   id="style2">
<![CDATA[
	.st0{fill:#000000;}
]]>
</style>
<g
   id="g6"
   style="fill:#0c465f;fill-opacity:1">
	<path
   class="st0"
   d="M433.156,104.281l-12.969-5.469c-21.297-9-43.453-13.5-65.844-13.5c-64.766,0-124.234,37.531-152.813,95.047   h216l-13.328,64.484H184c-0.266,3.656-0.422,7.406-0.422,11.156c0,9.219,0.813,18.594,2.375,28.031h210.266l-13.25,64.5H211.063   c31.344,48.734,84.719,78.25,143.281,78.25c19.859,0,39.781-3.625,59.188-10.875l15.469-5.75v90.734l-8.484,2.266   c-21.75,5.875-44.031,8.844-66.172,8.844c-105.422,0-200.266-65.344-238.375-163.469H61.422v-64.5h38.688   c-1.188-9.875-1.766-19.094-1.766-28.031c0-3.688,0.094-7.5,0.25-11.156H61.422v-64.484h48.672C143.141,73.75,242.313,0,354.344,0   c29.75,0,58.969,5.234,86.938,15.438l9.297,3.438L433.156,104.281z"
   id="path4"
   style="fill:#0c465f;fill-opacity:1" />
</g>
</svg>
