<?xml version="1.0" encoding="UTF-8" standalone="no"?>
<!-- Uploaded to: SVG Repo, www.svgrepo.com, Generator: SVG Repo Mixer Tools -->

<svg
   fill="#000000"
   height="800px"
   width="800px"
   version="1.1"
   viewBox="0 0 470 470"
   enable-background="new 0 0 470 470"
   id="svg16"
   sodipodi:docname="fast.svg"
   inkscape:version="1.1.2 (b8e25be833, 2022-02-05)"
   xmlns:inkscape="http://www.inkscape.org/namespaces/inkscape"
   xmlns:sodipodi="http://sodipodi.sourceforge.net/DTD/sodipodi-0.dtd"
   xmlns="http://www.w3.org/2000/svg"
   xmlns:svg="http://www.w3.org/2000/svg">
  <defs
     id="defs20" />
  <sodipodi:namedview
     id="namedview18"
     pagecolor="#505050"
     bordercolor="#eeeeee"
     borderopacity="1"
     inkscape:pageshadow="0"
     inkscape:pageopacity="0"
     inkscape:pagecheckerboard="0"
     showgrid="false"
     inkscape:zoom="0.63875"
     inkscape:cx="399.21722"
     inkscape:cy="400.78278"
     inkscape:window-width="1920"
     inkscape:window-height="1009"
     inkscape:window-x="1358"
     inkscape:window-y="-8"
     inkscape:window-maximized="1"
     inkscape:current-layer="svg16" />
  <g
     id="g1165"
     transform="matrix(1.3669449,0,0,1.3669449,-86.695247,-127.37574)"
     style="fill:#0c465f;fill-opacity:1">
    <path
       d="m 295.559,277.782 c -2.93,-2.929 -7.678,-2.929 -10.607,0 l -40.257,40.257 c -2.938,-1.408 -6.225,-2.199 -9.695,-2.199 -12.406,0 -22.5,10.093 -22.5,22.5 0,12.407 10.094,22.5 22.5,22.5 12.406,0 22.5,-10.093 22.5,-22.5 0,-3.469 -0.79,-6.757 -2.199,-9.694 l 40.257,-40.258 c 2.929,-2.928 2.929,-7.677 0.001,-10.606 z M 235,345.841 c -4.136,0 -7.5,-3.364 -7.5,-7.5 0,-4.136 3.364,-7.5 7.5,-7.5 4.136,0 7.5,3.364 7.5,7.5 0,4.136 -3.364,7.5 -7.5,7.5 z"
       id="path10"
       style="fill:#0c465f;fill-opacity:1" />
    <path
       d="m 335.68,338.341 c 0,4.142 3.357,7.5 7.5,7.5 h 53.521 c 4.143,0 7.5,-3.358 7.5,-7.5 0,-0.19 -0.007,-0.378 -0.021,-0.564 -0.151,-46.017 -18.776,-87.759 -48.821,-118.203 -0.221,-0.299 -0.458,-0.59 -0.73,-0.862 -0.266,-0.266 -0.551,-0.499 -0.845,-0.717 -30.57,-30.177 -72.537,-48.835 -118.785,-48.835 -46.242,0 -88.203,18.655 -118.772,48.826 -0.298,0.22 -0.588,0.457 -0.858,0.726 -0.27,0.27 -0.507,0.56 -0.727,0.858 -30.17,30.569 -48.825,72.53 -48.825,118.771 0,4.142 3.357,7.5 7.5,7.5 h 53.502 c 4.143,0 7.5,-3.358 7.5,-7.5 0,-55.515 45.165,-100.68 100.68,-100.68 55.515,0 100.681,45.165 100.681,100.68 z M 158.719,251.453 131.464,224.198 c 25.656,-23.294 59.168,-38.082 96.036,-39.856 v 38.568 c -26.261,1.689 -50.161,12.177 -68.781,28.543 z M 242.5,184.342 c 36.868,1.775 70.38,16.562 96.036,39.856 l -27.255,27.255 C 292.662,235.087 268.761,224.598 242.5,222.909 Z m 107.939,146.499 c -1.688,-26.262 -12.182,-50.164 -28.549,-68.783 l 27.253,-27.253 c 23.294,25.657 38.082,59.169 39.858,96.037 H 350.439 Z M 119.561,330.84 H 80.998 c 1.776,-36.868 16.564,-70.38 39.858,-96.037 l 27.253,27.253 c -16.366,18.62 -26.86,42.522 -28.548,68.784 z"
       id="path12"
       style="fill:#0c465f;fill-opacity:1" />
  </g>
</svg>
