<?xml version="1.0" encoding="UTF-8" standalone="no"?>
<!-- Uploaded to: SVG Repo, www.svgrepo.com, Generator: SVG Repo Mixer Tools -->

<svg
   fill="#000000"
   width="800px"
   height="800px"
   viewBox="0 0 1024 1024"
   version="1.1"
   id="svg8"
   sodipodi:docname="growth.svg"
   inkscape:version="1.1.2 (b8e25be833, 2022-02-05)"
   xmlns:inkscape="http://www.inkscape.org/namespaces/inkscape"
   xmlns:sodipodi="http://sodipodi.sourceforge.net/DTD/sodipodi-0.dtd"
   xmlns="http://www.w3.org/2000/svg"
   xmlns:svg="http://www.w3.org/2000/svg">
  <defs
     id="defs12" />
  <sodipodi:namedview
     id="namedview10"
     pagecolor="#505050"
     bordercolor="#eeeeee"
     borderopacity="1"
     inkscape:pageshadow="0"
     inkscape:pageopacity="0"
     inkscape:pagecheckerboard="0"
     showgrid="false"
     inkscape:zoom="1.8066578"
     inkscape:cx="397.97243"
     inkscape:cy="604.431"
     inkscape:window-width="1920"
     inkscape:window-height="1009"
     inkscape:window-x="1358"
     inkscape:window-y="-8"
     inkscape:window-maximized="1"
     inkscape:current-layer="svg8" />
  <path
     d="M277.675 981.521c5.657 0 10.24-4.583 10.24-10.24V499.514c0-5.651-4.588-10.24-10.24-10.24h-81.92c-5.652 0-10.24 4.589-10.24 10.24v471.767c0 5.657 4.583 10.24 10.24 10.24h81.92zm0 40.96h-81.92c-28.278 0-51.2-22.922-51.2-51.2V499.514c0-28.271 22.924-51.2 51.2-51.2h81.92c28.276 0 51.2 22.929 51.2 51.2v471.767c0 28.278-22.922 51.2-51.2 51.2zm275.456-40.96c5.657 0 10.24-4.583 10.24-10.24V408.777c0-5.657-4.583-10.24-10.24-10.24h-81.92a10.238 10.238 0 00-10.24 10.24v562.504c0 5.657 4.583 10.24 10.24 10.24h81.92zm0 40.96h-81.92c-28.278 0-51.2-22.922-51.2-51.2V408.777c0-28.278 22.922-51.2 51.2-51.2h81.92c28.278 0 51.2 22.922 51.2 51.2v562.504c0 28.278-22.922 51.2-51.2 51.2zm275.456-40.016c5.657 0 10.24-4.583 10.24-10.24V318.974c0-5.651-4.588-10.24-10.24-10.24h-81.92c-5.652 0-10.24 4.589-10.24 10.24v653.251c0 5.657 4.583 10.24 10.24 10.24h81.92zm0 40.96h-81.92c-28.278 0-51.2-22.922-51.2-51.2V318.974c0-28.271 22.924-51.2 51.2-51.2h81.92c28.276 0 51.2 22.929 51.2 51.2v653.251c0 28.278-22.922 51.2-51.2 51.2zM696.848 40.96l102.39.154c11.311.017 20.494-9.138 20.511-20.449S810.611.171 799.3.154L696.91 0c-11.311-.017-20.494 9.138-20.511 20.449s9.138 20.494 20.449 20.511z"
     id="path2"
     style="fill:#0c465f;fill-opacity:1" />
  <path
     d="M778.789 20.571l-.307 101.827c-.034 11.311 9.107 20.508 20.418 20.542s20.508-9.107 20.542-20.418l.307-101.827C819.783 9.384 810.642.187 799.331.153s-20.508 9.107-20.542 20.418z"
     id="path4"
     style="fill:#0c465f;fill-opacity:1" />
  <path
     d="M163.84 317.682h154.184a51.207 51.207 0 0036.211-14.999L457.208 199.71a10.263 10.263 0 017.237-3.003h159.754a51.235 51.235 0 0036.198-14.976l141.13-141.13c7.998-7.998 7.998-20.965 0-28.963s-20.965-7.998-28.963 0L631.447 152.755a10.265 10.265 0 01-7.248 2.992H464.445a51.226 51.226 0 00-36.201 14.999L325.271 273.719a10.244 10.244 0 01-7.248 3.003H163.839c-11.311 0-20.48 9.169-20.48 20.48s9.169 20.48 20.48 20.48z"
     id="path6"
     style="fill:#0c465f;fill-opacity:1" />
  <rect
     style="fill:#0c465f;stroke:#0c465f;stroke-width:1.40902"
     id="rect845"
     width="125.24854"
     height="496.44479"
     x="174.40501"
     y="485.01166" />
  <rect
     style="fill:#0c465f;stroke:#0c465f;stroke-width:1.53647"
     id="rect845-5"
     width="125.24854"
     height="590.31378"
     x="447.72021"
     y="393.33264" />
  <rect
     style="fill:#0c465f;stroke:#0c465f;stroke-width:1.65902"
     id="rect845-56"
     width="124.99855"
     height="689.61273"
     x="723.92523"
     y="300.98279" />
</svg>
