<?xml version="1.0" encoding="UTF-8" standalone="no"?>
<!-- Uploaded to: SVG Repo, www.svgrepo.com, Generator: SVG Repo Mixer Tools -->

<svg
   fill="#000000"
   version="1.1"
   id="Capa_1"
   width="800px"
   height="800px"
   viewBox="0 0 45.174 45.174"
   xml:space="preserve"
   sodipodi:docname="gym.svg"
   inkscape:version="1.2 (dc2aedaf03, 2022-05-15)"
   xmlns:inkscape="http://www.inkscape.org/namespaces/inkscape"
   xmlns:sodipodi="http://sodipodi.sourceforge.net/DTD/sodipodi-0.dtd"
   xmlns="http://www.w3.org/2000/svg"
   xmlns:svg="http://www.w3.org/2000/svg"><defs
   id="defs9" /><sodipodi:namedview
   id="namedview7"
   pagecolor="#505050"
   bordercolor="#eeeeee"
   borderopacity="1"
   inkscape:showpageshadow="0"
   inkscape:pageopacity="0"
   inkscape:pagecheckerboard="0"
   inkscape:deskcolor="#505050"
   showgrid="false"
   inkscape:zoom="0.67375"
   inkscape:cx="313.17254"
   inkscape:cy="400.74212"
   inkscape:window-width="1360"
   inkscape:window-height="697"
   inkscape:window-x="-8"
   inkscape:window-y="-8"
   inkscape:window-maximized="1"
   inkscape:current-layer="Capa_1" />
<g
   id="g4"
   style="fill:#0c465f;fill-opacity:1">
	<path
   d="M41.573,15.879v-1.675c0-1.922-1.558-3.495-3.479-3.495h-2.761c-1.921,0-3.479,1.573-3.479,3.495v4.693H13.319v-4.693   c0-1.922-1.558-3.495-3.479-3.495H7.079c-1.921,0-3.479,1.573-3.479,3.495v1.675c-1.979,0-3.6,1.617-3.6,3.613v6.172   c0,1.996,1.71,3.613,3.6,3.613v1.674c0,1.922,1.558,3.513,3.479,3.513H9.84c1.921,0,3.479-1.591,3.479-3.513v-4.676h18.536v4.676   c0,1.922,1.558,3.513,3.479,3.513h2.762c1.92,0,3.479-1.591,3.479-3.513v-1.674c1.979,0,3.6-1.619,3.6-3.613v-6.172   C45.172,17.496,43.462,15.879,41.573,15.879z"
   id="path2"
   style="fill:#0c465f;fill-opacity:1" />
</g>
</svg>
