<?xml version="1.0" encoding="UTF-8" standalone="no"?>
<!-- Uploaded to: SVG Repo, www.svgrepo.com, Generator: SVG Repo Mixer Tools -->

<svg
   fill="#000000"
   height="800px"
   width="800px"
   version="1.1"
   id="Layer_1"
   viewBox="0 0 512 512"
   xml:space="preserve"
   sodipodi:docname="landingpage.svg"
   inkscape:version="1.1.2 (b8e25be833, 2022-02-05)"
   xmlns:inkscape="http://www.inkscape.org/namespaces/inkscape"
   xmlns:sodipodi="http://sodipodi.sourceforge.net/DTD/sodipodi-0.dtd"
   xmlns="http://www.w3.org/2000/svg"
   xmlns:svg="http://www.w3.org/2000/svg"><defs
   id="defs57" /><sodipodi:namedview
   id="namedview55"
   pagecolor="#505050"
   bordercolor="#eeeeee"
   borderopacity="1"
   inkscape:pageshadow="0"
   inkscape:pageopacity="0"
   inkscape:pagecheckerboard="0"
   showgrid="false"
   inkscape:zoom="0.63875"
   inkscape:cx="400.78278"
   inkscape:cy="400.78278"
   inkscape:window-width="1360"
   inkscape:window-height="697"
   inkscape:window-x="-8"
   inkscape:window-y="-8"
   inkscape:window-maximized="1"
   inkscape:current-layer="Layer_1" />







<g
   id="g918"
   style="fill:#0c465f;fill-opacity:1"><g
     id="g6"
     style="fill:#0c465f;fill-opacity:1">
	<g
   id="g4"
   style="fill:#0c465f;fill-opacity:1">
		<ellipse
   cx="68.256"
   cy="125.052"
   rx="13.184"
   ry="13.168"
   id="ellipse2"
   style="fill:#0c465f;fill-opacity:1" />
	</g>
</g><g
     id="g12"
     style="fill:#0c465f;fill-opacity:1">
	<g
   id="g10"
   style="fill:#0c465f;fill-opacity:1">
		<ellipse
   cx="103.208"
   cy="125.052"
   rx="13.184"
   ry="13.168"
   id="ellipse8"
   style="fill:#0c465f;fill-opacity:1" />
	</g>
</g><g
     id="g18"
     style="fill:#0c465f;fill-opacity:1">
	<g
   id="g16"
   style="fill:#0c465f;fill-opacity:1">
		<ellipse
   cx="138.16"
   cy="125.052"
   rx="13.184"
   ry="13.168"
   id="ellipse14"
   style="fill:#0c465f;fill-opacity:1" />
	</g>
</g><g
     id="g24"
     style="fill:#0c465f;fill-opacity:1">
	<g
   id="g22"
   style="fill:#0c465f;fill-opacity:1">
		<polygon
   points="202.024,104.34 174.216,146.916 456.928,146.916 456.928,104.34   "
   id="polygon20"
   style="fill:#0c465f;fill-opacity:1" />
	</g>
</g><g
     id="g30"
     style="fill:#0c465f;fill-opacity:1">
	<g
   id="g28"
   style="fill:#0c465f;fill-opacity:1">
		<path
   d="M488,49.332H24c-13.2,0-24,10.8-24,24v365.336c0,13.2,10.8,24,24,24h464c13.2,0,24-10.8,24-24V73.332    C512,60.132,501.2,49.332,488,49.332z M480,421.916L457.856,405.1h-63.632l33.544,25.568h-27.704L366.4,405.1H145.592    l-33.664,25.568H84.224l33.544-25.568H54.144L32,421.916V81.332h448V421.916z"
   id="path26"
   style="fill:#0c465f;fill-opacity:1" />
	</g>
</g><g
     id="g40"
     style="fill:#0c465f;fill-opacity:1">
	<g
   id="g38"
   style="fill:#0c465f;fill-opacity:1">
		<g
   id="g36"
   style="fill:#0c465f;fill-opacity:1">
			<polygon
   points="90.104,232.476 90.104,232.476 90.104,232.476    "
   id="polygon32"
   style="fill:#0c465f;fill-opacity:1" />
			<path
   d="M183.784,232.484l-10.408,44.624c-0.672,2.688-1.416,6.2-2.232,10.536c-0.824,4.344-1.416,7.968-1.792,10.88     c-0.416-3.024-1.008-6.64-1.792-10.848c-0.784-4.208-1.44-7.344-1.96-9.4l-11.904-45.8h-16.392l-11.904,45.8     c-0.712,2.464-1.472,5.92-2.264,10.376c-0.808,4.464-1.312,7.752-1.536,9.872c-0.824-6.04-2.152-13.176-3.968-21.424     l-10.464-44.624H90.104l20.856,81.76h19.688l11.016-42.832c0.488-1.896,1.168-5.08,2.072-9.528     c0.888-4.464,1.456-7.696,1.672-9.704c0.152,1.64,0.72,4.848,1.712,9.64c0.984,4.8,1.68,7.952,2.096,9.488l11.072,42.944h19.744     l20.808-81.76H183.784z"
   id="path34"
   style="fill:#0c465f;fill-opacity:1" />
		</g>
	</g>
</g><g
     id="g46"
     style="fill:#0c465f;fill-opacity:1">
	<g
   id="g44"
   style="fill:#0c465f;fill-opacity:1">
		<path
   d="M294.512,232.476L284.104,277.1c-0.672,2.688-1.416,6.2-2.232,10.536c-0.824,4.344-1.416,7.968-1.792,10.88    c-0.416-3.024-1.008-6.64-1.792-10.848c-0.784-4.208-1.44-7.344-1.96-9.4l-11.904-45.8h-16.392l-11.904,45.8    c-0.712,2.464-1.472,5.92-2.264,10.376c-0.808,4.464-1.312,7.752-1.536,9.872c-0.824-6.04-2.152-13.176-3.968-21.424    l-10.464-44.624H200.84l20.856,81.76h19.68v0l11.016-42.832c0.488-1.896,1.168-5.08,2.072-9.528    c0.888-4.464,1.456-7.696,1.672-9.704c0.152,1.64,0.72,4.848,1.712,9.64c0.984,4.8,1.68,7.952,2.096,9.488l11.072,42.944h19.744    l20.808-81.76H294.512z"
   id="path42"
   style="fill:#0c465f;fill-opacity:1" />
	</g>
</g><g
     id="g52"
     style="fill:#0c465f;fill-opacity:1">
	<g
   id="g50"
   style="fill:#0c465f;fill-opacity:1">
		<path
   d="M405.24,232.476L394.832,277.1c-0.672,2.688-1.416,6.2-2.232,10.536c-0.824,4.344-1.416,7.968-1.792,10.88    c-0.416-3.024-1.008-6.64-1.792-10.848c-0.784-4.208-1.44-7.344-1.96-9.4l-11.904-45.8H358.76l-11.904,45.8    c-0.712,2.464-1.472,5.92-2.264,10.376c-0.808,4.464-1.312,7.752-1.536,9.872c-0.824-6.04-2.152-13.176-3.968-21.424    l-10.464-44.624h-17.056l20.856,81.76h19.68v0l11.016-42.832c0.488-1.896,1.168-5.08,2.072-9.528    c0.888-4.464,1.456-7.696,1.672-9.704c0.152,1.64,0.72,4.848,1.712,9.64c0.984,4.8,1.68,7.952,2.096,9.488l11.072,42.944h19.744    l20.808-81.76H405.24z"
   id="path48"
   style="fill:#0c465f;fill-opacity:1" />
	</g>
</g></g>
</svg>
