<?xml version="1.0" encoding="UTF-8" standalone="no"?>
<!-- Uploaded to: SVG Repo, www.svgrepo.com, Generator: SVG Repo Mixer Tools -->

<svg
   version="1.1"
   id="Layer_1"
   viewBox="0 0 509.287 509.287"
   xml:space="preserve"
   sodipodi:docname="laptop2.svg"
   inkscape:version="1.1.2 (b8e25be833, 2022-02-05)"
   xmlns:inkscape="http://www.inkscape.org/namespaces/inkscape"
   xmlns:sodipodi="http://sodipodi.sourceforge.net/DTD/sodipodi-0.dtd"
   xmlns="http://www.w3.org/2000/svg"
   xmlns:svg="http://www.w3.org/2000/svg"><defs
   id="defs41">
	
	
	
</defs><sodipodi:namedview
   id="namedview39"
   pagecolor="#505050"
   bordercolor="#eeeeee"
   borderopacity="1"
   inkscape:pageshadow="0"
   inkscape:pageopacity="0"
   inkscape:pagecheckerboard="0"
   showgrid="false"
   inkscape:zoom="1.0033636"
   inkscape:cx="254.14516"
   inkscape:cy="254.14516"
   inkscape:window-width="1920"
   inkscape:window-height="1009"
   inkscape:window-x="1358"
   inkscape:window-y="-8"
   inkscape:window-maximized="1"
   inkscape:current-layer="Layer_1" />














<g
   id="g957"
   transform="matrix(1,0,0,1.1632964,0,-13.676239)"><path
     style="fill:#bdbdbe"
     d="M 448.593,83.751 H 60.694 c -5.764,0 -10.172,4.747 -10.172,10.172 V 372.98 H 459.105 V 93.923 c 0,-5.764 -4.747,-10.172 -10.512,-10.172 z"
     id="path4" /><rect
     x="70.527"
     y="102.4"
     style="fill:#f1f3f7"
     width="368.57199"
     height="251.592"
     id="rect6" /><rect
     x="70.527"
     y="102.4"
     style="fill:#4b5aa7"
     width="368.57199"
     height="38.314999"
     id="rect8" /><rect
     x="116.302"
     y="113.928"
     style="fill:#f1f3f7"
     width="306.522"
     height="15.597"
     id="rect10" /><rect
     x="70.527"
     y="336.69901"
     style="fill:#393d47"
     width="368.57199"
     height="17.632"
     id="rect12" /><path
     style="fill:#d6d6d8"
     d="m 0,372.98 c 0,29.16 23.396,52.556 52.556,52.556 h 404.175 c 29.16,0 52.556,-23.396 52.556,-52.556 z"
     id="path14" /><rect
     x="187.507"
     y="372.98001"
     style="fill:#646b79"
     width="133.93401"
     height="11.189"
     id="rect16" /><rect
     x="96.296997"
     y="162.416"
     style="fill:#646b79"
     width="190.89799"
     height="102.4"
     id="rect18" /><rect
     x="309.23401"
     y="162.416"
     style="fill:#646b79"
     width="49.844002"
     height="30.856001"
     id="rect20" /><rect
     x="369.92801"
     y="184.795"
     style="fill:#dededf"
     width="52.895"
     height="8.4770002"
     id="rect24" /><rect
     x="309.23401"
     y="205.817"
     style="fill:#646b79"
     width="49.844002"
     height="30.856001"
     id="rect26" /><rect
     x="369.92801"
     y="228.196"
     style="fill:#dededf"
     width="52.895"
     height="8.4770002"
     id="rect28" /><rect
     x="309.23401"
     y="248.879"
     style="fill:#646b79"
     width="49.844002"
     height="30.856001"
     id="rect30" /><rect
     x="369.92801"
     y="271.258"
     style="fill:#dededf"
     width="52.895"
     height="8.4770002"
     id="rect32" /><rect
     x="309.23401"
     y="292.28101"
     style="fill:#646b79"
     width="49.844002"
     height="30.856001"
     id="rect34" /><rect
     x="369.92801"
     y="314.66"
     style="fill:#dededf"
     width="52.895"
     height="8.4770002"
     id="rect36" /></g>
</svg>
