<?xml version="1.0" encoding="UTF-8" standalone="no"?>
<!-- Uploaded to: SVG Repo, www.svgrepo.com, Generator: SVG Repo Mixer Tools -->

<svg
   height="800px"
   width="800px"
   version="1.1"
   id="_x32_"
   viewBox="0 0 512 512"
   xml:space="preserve"
   sodipodi:docname="laptop.svg"
   inkscape:version="1.1.2 (b8e25be833, 2022-02-05)"
   xmlns:inkscape="http://www.inkscape.org/namespaces/inkscape"
   xmlns:sodipodi="http://sodipodi.sourceforge.net/DTD/sodipodi-0.dtd"
   xmlns="http://www.w3.org/2000/svg"
   xmlns:svg="http://www.w3.org/2000/svg"><defs
   id="defs11" /><sodipodi:namedview
   id="namedview9"
   pagecolor="#505050"
   bordercolor="#eeeeee"
   borderopacity="1"
   inkscape:pageshadow="0"
   inkscape:pageopacity="0"
   inkscape:pagecheckerboard="0"
   showgrid="false"
   inkscape:zoom="0.63875"
   inkscape:cx="400.78278"
   inkscape:cy="400.78278"
   inkscape:window-width="1366"
   inkscape:window-height="697"
   inkscape:window-x="-8"
   inkscape:window-y="-8"
   inkscape:window-maximized="1"
   inkscape:current-layer="_x32_" />
<style
   type="text/css"
   id="style2">
	.st0{fill:#000000;}
</style>
<g
   id="g6"
   style="fill:#0c465f;fill-opacity:1">
	<path
   class="st0"
   d="M510.163,392.022l-45.59-57.326V93.611c0-11.662-9.458-21.12-21.12-21.12H68.546   c-11.662,0-21.115,9.458-21.115,21.12v241.085L1.837,392.022C0.648,393.517,0,395.367,0,397.287v25.373   c0,9.311,7.542,16.849,16.849,16.849h478.302c9.307,0,16.849-7.538,16.849-16.849v-25.373   C512,395.367,511.356,393.517,510.163,392.022z M77.226,102.291h357.548v202.606H77.226V102.291z M304.121,419.47h-96.242v-25.478   h96.242V419.47z"
   id="path4"
   style="fill:#0c465f;fill-opacity:1" />
</g>
</svg>
