<?xml version="1.0" encoding="UTF-8" standalone="no"?>
<!-- Uploaded to: SVG Repo, www.svgrepo.com, Generator: SVG Repo Mixer Tools -->

<svg
   version="1.1"
   id="Layer_1"
   width="800px"
   height="800px"
   viewBox="0 0 40 64"
   enable-background="new 0 0 40 64"
   xml:space="preserve"
   sodipodi:docname="light.svg"
   inkscape:version="1.1.2 (b8e25be833, 2022-02-05)"
   xmlns:inkscape="http://www.inkscape.org/namespaces/inkscape"
   xmlns:sodipodi="http://sodipodi.sourceforge.net/DTD/sodipodi-0.dtd"
   xmlns="http://www.w3.org/2000/svg"
   xmlns:svg="http://www.w3.org/2000/svg"
   xmlns:sketch="http://www.bohemiancoding.com/sketch/ns"><defs
   id="defs16">
	

		
			
		
			
		
			
		
			
		
			
	</defs><sodipodi:namedview
   id="namedview14"
   pagecolor="#505050"
   bordercolor="#eeeeee"
   borderopacity="1"
   inkscape:pageshadow="0"
   inkscape:pageopacity="0"
   inkscape:pagecheckerboard="0"
   showgrid="false"
   inkscape:zoom="0.63875"
   inkscape:cx="399.21722"
   inkscape:cy="400.78278"
   inkscape:window-width="1920"
   inkscape:window-height="1009"
   inkscape:window-x="1358"
   inkscape:window-y="-8"
   inkscape:window-maximized="1"
   inkscape:current-layer="Layer_1" />
<title
   id="title2">Light-bulb</title>
<desc
   id="desc4">Created with Sketch.</desc>
<path
   id="Shape"
   sketch:type="MSShapeGroup"
   fill="none"
   stroke="#6b6c6e"
   stroke-width="2"
   stroke-linecap="round"
   stroke-linejoin="round"
   d="M 9.6,49 30.2,46 C 30.2,39.5 39,31.4 39,20.4 39,9.7 30.5,1 20,1 9.5,1 1,9.7 1,20.4 c 0,10.9 8.6,19 8.6,25.5 z"
   style="stroke:#0c465f;stroke-opacity:1" /><path
   id="Shape_1_"
   sketch:type="MSShapeGroup"
   fill="none"
   stroke="#6b6c6e"
   stroke-width="2"
   stroke-linecap="round"
   stroke-linejoin="round"
   d="M 11,53.3 29.8,50.4"
   style="stroke:#0c465f;stroke-opacity:1" /><path
   id="Shape_2_"
   sketch:type="MSShapeGroup"
   fill="none"
   stroke="#6b6c6e"
   stroke-width="2"
   stroke-linecap="round"
   stroke-linejoin="round"
   d="M 11,57.2 29.8,54.3"
   style="stroke:#0c465f;stroke-opacity:1" /><path
   id="Shape_3_"
   sketch:type="MSShapeGroup"
   fill="none"
   stroke="#6b6c6e"
   stroke-width="2"
   stroke-linecap="round"
   stroke-linejoin="round"
   d="m 27.3,60.1 c 0,1.6 -3.1,2.9 -7,2.9 -3.9,0 -7,-1.3 -7,-2.9"
   style="stroke:#0c465f;stroke-opacity:1" /><path
   id="Shape_4_"
   sketch:type="MSShapeGroup"
   fill="none"
   stroke="#6b6c6e"
   stroke-width="2"
   stroke-linecap="round"
   stroke-linejoin="round"
   d="M 17.4,41.8 C 17.4,29.4 13.9,25 13.9,25 c 0,0 1.4,3.1 3,3.1 1.7,0 3,-1.4 3,-3.1 0,1.7 1.4,3.1 3,3.1 1.7,0 3,-3.1 3,-3.1 0,0 -2.8,6.7 -2.8,16.8"
   style="stroke:#0c465f;stroke-opacity:1" />
</svg>
