<?xml version="1.0" encoding="UTF-8" standalone="no"?>
<!-- Uploaded to: SVG Repo, www.svgrepo.com, Generator: SVG Repo Mixer Tools -->

<svg
   width="800px"
   height="800px"
   viewBox="0 0 48 48"
   version="1.1"
   id="svg13"
   sodipodi:docname="linkedin.white.svg"
   inkscape:version="1.2 (dc2aedaf03, 2022-05-15)"
   xmlns:inkscape="http://www.inkscape.org/namespaces/inkscape"
   xmlns:sodipodi="http://sodipodi.sourceforge.net/DTD/sodipodi-0.dtd"
   xmlns="http://www.w3.org/2000/svg"
   xmlns:svg="http://www.w3.org/2000/svg">
  <defs
     id="defs17" />
  <sodipodi:namedview
     id="namedview15"
     pagecolor="#505050"
     bordercolor="#eeeeee"
     borderopacity="1"
     inkscape:showpageshadow="0"
     inkscape:pageopacity="0"
     inkscape:pagecheckerboard="0"
     inkscape:deskcolor="#505050"
     showgrid="false"
     inkscape:zoom="0.67375"
     inkscape:cx="228.57143"
     inkscape:cy="402.22635"
     inkscape:window-width="1360"
     inkscape:window-height="697"
     inkscape:window-x="-8"
     inkscape:window-y="-8"
     inkscape:window-maximized="1"
     inkscape:current-layer="svg13" />
  <title
     id="title2">linkedin</title>
  <g
     id="invisible_box"
     data-name="invisible box">
    <rect
       width="48"
       height="48"
       fill="none"
       id="rect4"
       x="0"
       y="0" />
    <rect
       width="48"
       height="48"
       fill="none"
       id="rect6"
       x="0"
       y="0" />
  </g>
  <g
     id="icons_Q2"
     data-name="icons Q2"
     style="fill:#ffffff;fill-opacity:1">
    <path
       d="M 41,4.1 H 7 A 2.9,2.9 0 0 0 4,7 V 41.1 A 2.9,2.9 0 0 0 7,44 h 34 a 2.9,2.9 0 0 0 2.9,-2.9 V 7 A 2.9,2.9 0 0 0 41,4.1 Z m -25.1,34 h -6 v -19 h 6 z m -3,-21.6 A 3.5,3.5 0 0 1 9.5,13 a 3.4,3.4 0 0 1 6.8,0 3.5,3.5 0 0 1 -3.4,3.5 z M 38,38.1 h -5.9 v -9.3 c 0,-2.2 0,-5 -3.1,-5 -3.1,0 -3.5,2.4 -3.5,4.9 v 9.4 h -5.9 v -19 h 5.6 v 2.6 h 0.1 a 6.2,6.2 0 0 1 5.6,-3.1 c 6,0 7.1,3.9 7.1,9.1 z"
       id="path9"
       style="fill:#ffffff;fill-opacity:1" />
  </g>
</svg>
