<?xml version="1.0" encoding="UTF-8" standalone="no"?>
<!-- Uploaded to: SVG Repo, www.svgrepo.com, Generator: SVG Repo Mixer Tools -->

<svg
   width="800px"
   height="800px"
   viewBox="0 -3.5 24 24"
   id="meteor-icon-kit__solid-youtube"
   fill="none"
   version="1.1"
   sodipodi:docname="logo.youtube.svg"
   inkscape:version="1.1.2 (b8e25be833, 2022-02-05)"
   xmlns:inkscape="http://www.inkscape.org/namespaces/inkscape"
   xmlns:sodipodi="http://sodipodi.sourceforge.net/DTD/sodipodi-0.dtd"
   xmlns="http://www.w3.org/2000/svg"
   xmlns:svg="http://www.w3.org/2000/svg">
  <defs
     id="defs7" />
  <sodipodi:namedview
     id="namedview5"
     pagecolor="#505050"
     bordercolor="#eeeeee"
     borderopacity="1"
     inkscape:pageshadow="0"
     inkscape:pageopacity="0"
     inkscape:pagecheckerboard="0"
     showgrid="false"
     inkscape:zoom="0.63875"
     inkscape:cx="400.78278"
     inkscape:cy="400.78278"
     inkscape:window-width="1920"
     inkscape:window-height="1009"
     inkscape:window-x="1352"
     inkscape:window-y="-8"
     inkscape:window-maximized="1"
     inkscape:current-layer="meteor-icon-kit__solid-youtube" />
  <path
     fill-rule="evenodd"
     clip-rule="evenodd"
     d="M 23.4593,1.8240543 C 23.1843,0.64611658 22.3738,-0.2815992 21.3447,-0.5964294 19.4795,-1.1685212 12,-1.1685212 12,-1.1685212 c 0,0 -7.47941,0 -9.34471,0.5720918 C 1.62622,-0.2815537 0.815739,0.64611658 0.540659,1.8240543 0.040863,3.9591517 0.040863,8.4138798 0.040863,8.4138798 c 0,0 0,4.4545692 0.499796,6.5896782 0.27508,1.177983 1.085561,2.066986 2.114631,2.381896 C 4.52059,17.9575 12,17.9575 12,17.9575 c 0,0 7.4794,0 9.3447,-0.572046 1.0291,-0.31491 1.8396,-1.203913 2.1146,-2.381896 0.4998,-2.135109 0.4998,-6.5896782 0.4998,-6.5896782 0,0 0,-4.4547281 -0.4998,-6.5898255 z M 9.5538,12.45835 V 4.3693192 l 6.2513,4.0445606 z"
     fill="#758CA3"
     id="path2"
     style="fill:#ffffff;stroke-width:1.06643" />
</svg>
