<?xml version="1.0" encoding="UTF-8" standalone="no"?>
<!-- Uploaded to: SVG Repo, www.svgrepo.com, Generator: SVG Repo Mixer Tools -->

<svg
   width="800px"
   height="800px"
   viewBox="0 -3.5 24 24"
   id="meteor-icon-kit__solid-youtube"
   fill="none"
   version="1.1"
   sodipodi:docname="logo.youtube.blue.svg"
   inkscape:version="1.1.2 (b8e25be833, 2022-02-05)"
   xmlns:inkscape="http://www.inkscape.org/namespaces/inkscape"
   xmlns:sodipodi="http://sodipodi.sourceforge.net/DTD/sodipodi-0.dtd"
   xmlns="http://www.w3.org/2000/svg"
   xmlns:svg="http://www.w3.org/2000/svg">
  <defs
     id="defs7" />
  <sodipodi:namedview
     id="namedview5"
     pagecolor="#505050"
     bordercolor="#eeeeee"
     borderopacity="1"
     inkscape:pageshadow="0"
     inkscape:pageopacity="0"
     inkscape:pagecheckerboard="0"
     showgrid="false"
     inkscape:zoom="0.63875"
     inkscape:cx="400.78278"
     inkscape:cy="275.53816"
     inkscape:window-width="1920"
     inkscape:window-height="1009"
     inkscape:window-x="1352"
     inkscape:window-y="-8"
     inkscape:window-maximized="1"
     inkscape:current-layer="meteor-icon-kit__solid-youtube" />
  <path
     fill-rule="evenodd"
     clip-rule="evenodd"
     d="M 23.4593,2.1778319 C 23.1843,1.0476279 22.3738,0.15750604 21.3447,-0.14456623 19.4795,-0.6934751 12,-0.6934751 12,-0.6934751 c 0,0 -7.47941,0 -9.34471,0.54890887 C 1.62622,0.15754969 0.815739,1.0476279 0.540659,2.1778319 0.040863,4.2264085 0.040863,8.5006171 0.040863,8.5006171 c 0,0 0,4.2740559 0.499796,6.3226439 0.27508,1.130247 1.085561,1.983225 2.114631,2.285374 C 4.52059,17.6575 12,17.6575 12,17.6575 c 0,0 7.4794,0 9.3447,-0.548865 1.0291,-0.302149 1.8396,-1.155127 2.1146,-2.285374 0.4998,-2.048588 0.4998,-6.3226439 0.4998,-6.3226439 0,0 0,-4.2742086 -0.4998,-6.3227852 z M 9.5538,12.381192 V 4.6199547 l 6.2513,3.8806624 z"
     fill="#758CA3"
     id="path2"
     style="fill:#0c465f;fill-opacity:1;stroke-width:1.0446" />
</svg>
