<?xml version="1.0" encoding="UTF-8" standalone="no"?>
<!-- Uploaded to: SVG Repo, www.svgrepo.com, Generator: SVG Repo Mixer Tools -->

<svg
   version="1.1"
   id="Capa_1"
   viewBox="0 0 455.001 455.001"
   xml:space="preserve"
   width="512"
   height="512"
   sodipodi:docname="logomarca.svg"
   inkscape:version="1.1.2 (b8e25be833, 2022-02-05)"
   xmlns:inkscape="http://www.inkscape.org/namespaces/inkscape"
   xmlns:sodipodi="http://sodipodi.sourceforge.net/DTD/sodipodi-0.dtd"
   xmlns="http://www.w3.org/2000/svg"
   xmlns:svg="http://www.w3.org/2000/svg"><defs
   id="defs33">
	
	
	
	
	
	
	
	
	
	
	
	
	
		
</defs><sodipodi:namedview
   id="namedview31"
   pagecolor="#505050"
   bordercolor="#eeeeee"
   borderopacity="1"
   inkscape:pageshadow="0"
   inkscape:pageopacity="0"
   inkscape:pagecheckerboard="0"
   showgrid="false"
   inkscape:zoom="0.99804688"
   inkscape:cx="255.49902"
   inkscape:cy="256.50098"
   inkscape:window-width="1360"
   inkscape:window-height="697"
   inkscape:window-x="-8"
   inkscape:window-y="-8"
   inkscape:window-maximized="1"
   inkscape:current-layer="Capa_1" />
<path
   style="fill:#0c465f;fill-opacity:1"
   d="M 91.924,0.001 0.001,91.924 363.077,455 455.001,363.076 Z M 67.176,88.389 c -5.858,-5.858 -5.858,-15.355 0,-21.213 5.858,-5.858 15.355,-5.858 21.213,0 5.858,5.858 5.858,15.355 0,21.213 -5.858,5.858 -15.355,5.858 -21.213,0 z m 299.436,299.436 c -5.858,-5.858 -5.858,-15.355 0,-21.213 5.858,-5.858 15.355,-5.858 21.213,0 5.858,5.858 5.858,15.355 0,21.213 -5.857,5.858 -15.355,5.858 -21.213,0 z"
   id="path2" /><path
   style="fill:#6da8d6"
   d="m 183.306,147.951 c -2.929,2.929 -2.929,7.677 0,10.607 2.929,2.93 7.677,2.929 10.607,0 l 28.284,-28.284 -10.607,-10.607 z"
   id="path4" /><path
   style="fill:#6da8d6"
   d="m 121.977,86.621 c -2.929,2.929 -2.929,7.677 0,10.607 2.929,2.93 7.677,2.929 10.607,0 L 160.868,68.944 150.261,58.337 Z"
   id="path6" /><path
   style="fill:#6da8d6"
   d="m 152.641,117.286 c -2.929,2.929 -2.929,7.677 0,10.607 2.929,2.929 7.677,2.929 10.607,0 L 191.532,99.609 180.925,89.002 Z"
   id="path8" /><path
   style="fill:#6da8d6"
   d="m 296.443,261.088 c -2.929,2.929 -2.929,7.677 0,10.607 2.929,2.929 7.677,2.929 10.607,0 l 28.284,-28.284 -10.607,-10.607 z"
   id="path10" /><path
   style="fill:#6da8d6"
   d="m 386.058,294.134 -28.284,28.284 c -2.929,2.929 -2.929,7.677 0,10.607 2.929,2.929 7.677,2.929 10.607,0 l 28.284,-28.284 z"
   id="path12" /><path
   style="fill:#6da8d6"
   d="m 327.109,291.753 c -2.929,2.929 -2.929,7.677 0,10.607 2.929,2.929 7.677,2.929 10.607,0 L 366,274.076 355.393,263.469 Z"
   id="path14" /><path
   style="fill:#f2484b"
   d="M 446.251,37.035 417.966,8.75 c -11.667,-11.667 -30.759,-11.667 -42.426,0 l -35.356,35.356 28.284,42.426 42.426,28.284 35.356,-35.356 c 11.668,-11.666 11.668,-30.758 10e-4,-42.425 z"
   id="path16" /><polygon
   style="fill:#6da8d6"
   points="70.711,384.29 363.331,105.813 313.833,70.457 49.545,334.745 "
   id="polygon18" /><polygon
   style="fill:#185f8d"
   points="120.256,405.456 384.544,141.169 356.26,98.742 70.711,384.29 "
   id="polygon20" /><polygon
   style="fill:#274b6d"
   points="42.426,412.575 20.624,404.914 0,455.001 50.087,434.377 "
   id="polygon22" /><path
   style="fill:#ffcc75"
   d="m 120.256,405.456 c -1.681,-6.258 -5.065,-12.306 -10.129,-17.37 -9.101,-9.101 -21.373,-12.795 -32.345,-10.867 1.928,-10.972 -1.766,-23.244 -10.867,-32.345 -5.064,-5.064 -11.112,-8.448 -17.37,-10.129 l -0.048,0.048 -28.874,70.121 29.463,29.463 70.121,-28.874 z"
   id="path24" /><rect
   x="172.0894"
   y="271.73285"
   transform="rotate(-45)"
   style="fill:#f2ebd9;stroke-width:0.99999"
   width="37.26564"
   height="99.999039"
   id="rect26" />















</svg>
