<?xml version="1.0" encoding="UTF-8" standalone="no"?>
<!-- Uploaded to: SVG Repo, www.svgrepo.com, Generator: SVG Repo Mixer Tools -->

<svg
   fill="#000000"
   width="800px"
   height="800px"
   viewBox="0 0 24 24"
   data-name="Layer 1"
   version="1.1"
   id="svg4"
   sodipodi:docname="logo.whatsapp.svg"
   inkscape:version="1.1.2 (b8e25be833, 2022-02-05)"
   xmlns:inkscape="http://www.inkscape.org/namespaces/inkscape"
   xmlns:sodipodi="http://sodipodi.sourceforge.net/DTD/sodipodi-0.dtd"
   xmlns="http://www.w3.org/2000/svg"
   xmlns:svg="http://www.w3.org/2000/svg">
  <defs
     id="defs8" />
  <sodipodi:namedview
     id="namedview6"
     pagecolor="#505050"
     bordercolor="#eeeeee"
     borderopacity="1"
     inkscape:pageshadow="0"
     inkscape:pageopacity="0"
     inkscape:pagecheckerboard="0"
     showgrid="false"
     inkscape:zoom="0.45166446"
     inkscape:cx="-90.775352"
     inkscape:cy="305.53655"
     inkscape:window-width="1360"
     inkscape:window-height="697"
     inkscape:window-x="-8"
     inkscape:window-y="-8"
     inkscape:window-maximized="1"
     inkscape:current-layer="svg4" />
  <rect
     style="fill:#ffffff;fill-opacity:1;stroke:#1a1a1a;stroke-width:0.0337184"
     id="rect865"
     width="20.999779"
     height="17.948608"
     x="1.2164432"
     y="2.9626017" />
  <path
     d="M 23.913895,5.4972995 C 23.90053,4.9853271 23.860852,4.4743767 23.794991,3.9664658 23.706205,3.5216033 23.558249,3.0905783 23.355046,2.6848376 23.14252,2.2446993 22.857107,1.8435039 22.510827,1.4981449 22.161355,1.1566197 21.760073,0.87227214 21.321785,0.65559296 20.914701,0.45675582 20.482827,0.3130821 20.037621,0.22838356 19.533546,0.15302798 19.025216,0.1094296 18.515648,0.09784736 H 5.5432093 C 5.0302238,0.11118151 4.5182623,0.15079011 4.0093463,0.21651664 3.5636035,0.3051252 3.1317256,0.45279108 2.725182,0.65559296 2.2841727,0.86769863 1.8821833,1.1525474 1.5361409,1.4981449 1.19394,1.8469261 0.90902966,2.2474158 0.69192169,2.6848376 0.49269108,3.091118 0.34873304,3.5221392 0.2638669,3.9664658 0.18836279,4.4695458 0.14467754,4.976872 0.13307238,5.4854326 v 0.640814 11.6770564 0.628947 c 0.0133601,0.511973 0.0530479,1.022923 0.11890411,1.530834 0.0887845,0.444862 0.236742,0.875887 0.4399452,1.281628 0.2125254,0.440138 0.49793781,0.841333 0.84421921,1.186693 0.3494714,0.341525 0.7507536,0.625872 1.1890411,0.842552 0.4070843,0.198837 0.8389585,0.34251 1.2841643,0.427209 0.5040756,0.07535 1.0124057,0.118954 1.5219726,0.130536 H 18.503758 c 0.512986,-0.01334 1.024948,-0.05294 1.533863,-0.118669 0.445743,-0.08861 0.877621,-0.236274 1.284164,-0.439076 0.44101,-0.212106 0.842998,-0.496955 1.189042,-0.842552 0.342201,-0.348781 0.62711,-0.749271 0.844219,-1.186693 0.199231,-0.406281 0.343188,-0.837302 0.428054,-1.281628 0.0755,-0.50308 0.11919,-1.010406 0.130795,-1.518967 V 17.803303 6.1262466 Z M 12.296964,20.271624 v 0 C 10.868998,20.264622 9.4660149,19.897191 8.2185526,19.2036 l -4.518357,1.186693 1.1890411,-4.414497 C 4.1224402,14.689958 3.7120692,13.223731 3.7001956,11.727436 3.7215117,4.1561074 12.886547,0.37230519 18.261409,5.714293 c 5.374862,5.341988 1.621713,14.504575 -5.964445,14.557331 z M 12.285073,4.5598122 C 6.7495229,4.6230328 3.4040421,10.811443 6.2923052,15.524853 L 6.458771,15.797792 5.7453463,18.396649 8.4563608,17.6609 8.7179499,17.81517 c 1.0815208,0.63578 2.3119681,0.975531 3.5671231,0.984955 v 0 c 3.940135,0 7.134247,-3.187803 7.134247,-7.120156 0,-3.9323541 -3.194112,-7.1201568 -7.134247,-7.1201568 z M 16.458607,14.80097 c -0.314942,0.524281 -0.837742,0.890811 -1.438739,1.008689 -0.444061,0.081 -0.901228,0.05249 -1.331726,-0.08307 C 13.283094,15.600207 12.886029,15.44962 12.499101,15.275647 11.029139,14.539499 9.7755294,13.435558 8.8606348,12.071577 8.3634765,11.439635 8.0618227,10.676679 7.9926348,9.8761958 7.9783188,9.203717 8.2505771,8.5567567 8.7417307,8.0961566 8.8863966,7.9324596 9.0937808,7.8375961 9.3124704,7.8350842 h 0.3329315 c 0.1307945,0 0.3091507,0 0.4756161,0.3678748 0.166466,0.3678747 0.606411,1.471499 0.665863,1.5783014 0.05927,0.1154889 0.05927,0.2523836 0,0.3678746 -0.05257,0.128953 -0.124755,0.249036 -0.214027,0.356008 -0.107014,0.130536 -0.225918,0.284806 -0.321041,0.379742 -0.09512,0.09493 -0.214028,0.213604 -0.09512,0.427209 0.323522,0.544917 0.723978,1.040501 1.189041,1.471499 0.506442,0.44662 1.085479,0.80379 1.712219,1.056156 0.214027,0.106802 0.344822,0.09494 0.463726,0 0.118904,-0.09493 0.535068,-0.61708 0.677753,-0.830685 0.142685,-0.213605 0.28537,-0.178004 0.475617,-0.106802 0.190246,0.0712 1.248493,0.581479 1.46252,0.688282 0.214028,0.106802 0.344822,0.15427 0.404274,0.249205 0.05157,0.310585 0.02293,0.629163 -0.08323,0.92562 z"
     id="path2"
     style="fill:#0c465f;stroke-width:1.18787;fill-opacity:1"
     sodipodi:nodetypes="cccccccccccccccccccccccccccccccccssccccssccccccsssccccccccccsscccscccssssccc" />
</svg>
