<?xml version="1.0" encoding="UTF-8" standalone="no"?>
<!-- Uploaded to: SVG Repo, www.svgrepo.com, Generator: SVG Repo Mixer Tools -->

<svg
   width="800px"
   height="800px"
   viewBox="0 0 24 24"
   version="1.1"
   id="svg9"
   sodipodi:docname="meta-svgrepo-com.svg"
   inkscape:version="1.1.2 (b8e25be833, 2022-02-05)"
   xmlns:inkscape="http://www.inkscape.org/namespaces/inkscape"
   xmlns:sodipodi="http://sodipodi.sourceforge.net/DTD/sodipodi-0.dtd"
   xmlns="http://www.w3.org/2000/svg"
   xmlns:svg="http://www.w3.org/2000/svg">
  <defs
     id="defs13" />
  <sodipodi:namedview
     id="namedview11"
     pagecolor="#505050"
     bordercolor="#eeeeee"
     borderopacity="1"
     inkscape:pageshadow="0"
     inkscape:pageopacity="0"
     inkscape:pagecheckerboard="0"
     showgrid="false"
     inkscape:zoom="0.319375"
     inkscape:cx="338.16047"
     inkscape:cy="216.04697"
     inkscape:window-width="1366"
     inkscape:window-height="697"
     inkscape:window-x="-8"
     inkscape:window-y="-8"
     inkscape:window-maximized="1"
     inkscape:current-layer="svg9" />
  <title
     id="title2">meta_fill</title>
  <g
     id="页面-1"
     stroke="none"
     stroke-width="1"
     fill="none"
     fill-rule="evenodd"
     transform="matrix(1.1369863,0,0,1.1369863,-1.6908023,-2.0665362)">
    <g
       id="Brand"
       transform="translate(-480,-48)">
      <g
         id="meta_fill"
         transform="translate(480,48)">
        <path
           d="M 24,0 V 24 H 0 V 0 Z m -11.40651,23.257841 -0.01155,0.0017 -0.07106,0.03553 -0.019,0.0037 v 0 l -0.01516,-0.0037 -0.07106,-0.03553 c -0.0098,-0.0031 -0.01861,-4.89e-4 -0.02351,0.0054 l -0.0041,0.01092 -0.01709,0.427279 0.005,0.02039 0.01101,0.01222 0.103573,0.07398 0.01487,0.0039 v 0 l 0.01177,-0.0039 0.103575,-0.07398 0.0126,-0.01604 v 0 l 0.0034,-0.01656 -0.01709,-0.427279 c -0.002,-0.01013 -0.0085,-0.01653 -0.01607,-0.01799 z m 0.264901,-0.112555 -0.01384,0.002 -0.184705,0.09235 -0.01,0.01024 v 0 l -0.0027,0.01121 0.0179,0.429528 0.0048,0.01278 v 0 l 0.0085,0.0071 0.200954,0.09275 c 0.01209,0.0037 0.02289,-2.52e-4 0.02849,-0.008 l 0.004,-0.01406 -0.03415,-0.614631 c -0.0024,-0.01194 -0.01027,-0.01953 -0.01929,-0.02125 z m -0.715344,0.002 c -0.0098,-0.0049 -0.02087,-0.002 -0.02741,0.0053 l -0.0057,0.01394 -0.03415,0.614631 c -6.39e-4,0.0115 0.007,0.0207 0.01688,0.0234 l 0.01561,-0.0013 0.200955,-0.09275 0.0094,-0.0081 v 0 l 0.0039,-0.0118 0.0179,-0.429528 -0.0032,-0.01259 v 0 l -0.0095,-0.0089 z"
           id="MingCute"
           fill-rule="nonzero" />
        <path
           d="m 16.0235,4.50341 c 1.8294,-0.12681 3.2435,0.94178 4.1841,2.17396 0.9484,1.24239 1.6018,2.86599 1.9597,4.46203 0.3578,1.5953 0.4535,3.311 0.1566,4.7729 -0.2851,1.4038 -1.0454,3.01 -2.7671,3.5247 -1.6193,0.4841 -3.0389,-0.2203 -4.0516,-1.0722 -1.0158,-0.8545 -1.876,-2.0526 -2.5522,-3.1763 -0.3278,-0.5447 -0.6258,-1.0947 -0.8893,-1.6155 -0.2636,0.5208 -0.5616,1.0708 -0.8894,1.6155 -0.6762,1.1237 -1.53638,2.3218 -2.55221,3.1763 C 7.60941,19.2167 6.18982,19.9211 4.57048,19.437 2.84884,18.9223 2.08848,17.3161 1.80341,15.9123 1.50655,14.4504 1.60217,12.7347 1.95995,11.1394 2.31789,9.54336 2.97134,7.91976 3.91972,6.67737 4.86029,5.44519 6.27437,4.3766 8.10383,4.50341 9.8199664,4.6223736 11.067483,5.786486 11.844659,6.7718704 L 12.0637,7.0609 v 0 L 12.282716,6.7718704 C 13.059814,5.786486 14.307318,4.6223736 16.0235,4.50341 Z M 7.89637,7.49623 C 7.47584,7.46708 6.92691,7.6821 6.30436,8.49766 5.68961,9.30301 5.17981,10.4913 4.88724,11.7959 4.59453,13.1011 4.5524,14.3747 4.74341,15.3153 c 0.1647831,0.811525 0.4288141,1.102055 0.5919547,1.203392 l 0.067403,0.03454 v 0 l 0.026962,0.0095 c 0.23267,0.0695 0.61409,0.0507 1.26116,-0.4936 0.64393,-0.5417 1.30229,-1.4127 1.91303,-2.4275 0.2723733,-0.452567 0.5246844,-0.916378 0.7517259,-1.362507 l 0.2599874,-0.52505 v 0 L 9.8493616,11.25714 v 0 l 0.2054704,-0.457746 v 0 l 0.175213,-0.407449 v 0 L 10.373,10.0459 v 0 C 10.2165,9.73315 9.99218,9.32834 9.71032,8.92724 9.06612,8.01052 8.42073,7.53258 7.89637,7.49623 Z m 8.33453,0 c -0.5243,0.03635 -1.1697,0.51429 -1.8139,1.43101 -0.2819,0.4011 -0.5062,0.80591 -0.6627,1.11866 l 0.226658,0.542788 v 0 l 0.190598,0.433986 c 0.03426,0.07637 0.06974,0.154601 0.106395,0.234466 l 0.233735,0.496935 v 0 l 0.259992,0.525018 c 0.227044,0.446129 0.479355,0.90994 0.751722,1.362507 0.6107,1.0148 1.2691,1.8858 1.913,2.4275 0.600879,0.505421 0.972659,0.557733 1.209017,0.506982 L 18.6976,16.5627 c 0.1303,-0.039 0.4835,-0.2486 0.6863,-1.2474 0.191,-0.9406 0.1489,-2.2142 -0.1438,-3.5194 C 18.9475,10.4913 18.4377,9.30301 17.8229,8.49766 17.2004,7.6821 16.6515,7.46708 16.2309,7.49623 Z"
           id="形状"
           fill="#09244b" />
      </g>
    </g>
  </g>
</svg>
