<?xml version="1.0" encoding="UTF-8" standalone="no"?>
<!-- Uploaded to: SVG Repo, www.svgrepo.com, Generator: SVG Repo Mixer Tools -->

<svg
   fill="#000000"
   width="800px"
   height="800px"
   viewBox="0 0 32 32"
   id="Camada_1"
   version="1.1"
   xml:space="preserve"
   sodipodi:docname="meta-home.svg"
   inkscape:version="1.1.2 (b8e25be833, 2022-02-05)"
   xmlns:inkscape="http://www.inkscape.org/namespaces/inkscape"
   xmlns:sodipodi="http://sodipodi.sourceforge.net/DTD/sodipodi-0.dtd"
   xmlns="http://www.w3.org/2000/svg"
   xmlns:svg="http://www.w3.org/2000/svg"><defs
     id="defs7" /><sodipodi:namedview
     id="namedview5"
     pagecolor="#505050"
     bordercolor="#eeeeee"
     borderopacity="1"
     inkscape:showpageshadow="0"
     inkscape:pageopacity="0"
     inkscape:pagecheckerboard="0"
     inkscape:deskcolor="#505050"
     showgrid="false"
     inkscape:zoom="0.67375"
     inkscape:cx="313.17254"
     inkscape:cy="44.526902"
     inkscape:window-width="1360"
     inkscape:window-height="697"
     inkscape:window-x="-8"
     inkscape:window-y="-8"
     inkscape:window-maximized="1"
     inkscape:current-layer="Camada_1"
     inkscape:pageshadow="0" /><path
     d="m 3.6522557,19.655361 c 0,-5.786762 2.5867046,-11.8251225 5.6232714,-11.8251225 1.6869809,0 3.0365669,1.1321926 5.1734099,4.5287705 -2.024378,3.522377 -3.261498,5.660962 -3.261498,5.660962 -2.6991707,4.78037 -3.5988936,5.786764 -5.0609441,5.786764 -1.4620504,0.1258 -2.4742392,-1.383791 -2.4742392,-4.151374 M 21.309327,17.516775 19.397415,13.994399 c -0.449862,-0.880595 -1.012189,-1.761189 -1.462051,-2.515984 1.686981,-2.8933815 3.036566,-4.4029716 4.723547,-4.4029716 3.373963,0 6.073134,5.6609626 6.073134,12.7057176 0,2.641783 -0.787259,4.151374 -2.361774,4.151374 -1.574516,0 -2.136843,-1.132194 -5.060944,-6.41576 M 16.473314,8.9624311 C 13.999074,5.3142549 11.862232,3.9304638 9.3879922,3.9304638 c -5.1734095,0 -9.10969906,7.6737502 -9.10969906,15.7248972 0,5.031969 2.13684296,8.176947 5.73573626,8.176947 2.586705,0 4.3861526,-1.383791 7.7601146,-7.925348 0,0 1.349584,-2.767581 2.361773,-4.65457 0.337397,0.628996 0.674793,1.257991 1.012189,2.012786 l 1.574516,3.019182 c 3.036567,5.786762 4.723547,7.673749 7.760113,7.673749 3.486429,0 5.398341,-3.270777 5.398341,-8.428545 -0.112465,-8.554344 -4.16122,-15.5990982 -8.997233,-15.5990982 -2.586704,0 -4.611082,2.2643853 -6.410529,5.0319673"
     id="path2"
     style="fill:#0c465f;fill-opacity:1;stroke-width:1.18946" /></svg>
