<?xml version="1.0" encoding="UTF-8" standalone="no"?>
<!-- Uploaded to: SVG Repo, www.svgrepo.com, Generator: SVG Repo Mixer Tools -->

<svg
   width="800px"
   height="800px"
   viewBox="0 0 48 48"
   version="1.1"
   id="svg11"
   sodipodi:docname="metric.svg"
   inkscape:version="1.1.2 (b8e25be833, 2022-02-05)"
   xmlns:inkscape="http://www.inkscape.org/namespaces/inkscape"
   xmlns:sodipodi="http://sodipodi.sourceforge.net/DTD/sodipodi-0.dtd"
   xmlns="http://www.w3.org/2000/svg"
   xmlns:svg="http://www.w3.org/2000/svg">
  <defs
     id="defs15" />
  <sodipodi:namedview
     id="namedview13"
     pagecolor="#505050"
     bordercolor="#eeeeee"
     borderopacity="1"
     inkscape:pageshadow="0"
     inkscape:pageopacity="0"
     inkscape:pagecheckerboard="0"
     showgrid="false"
     inkscape:zoom="0.63875"
     inkscape:cx="400.78278"
     inkscape:cy="400.78278"
     inkscape:window-width="1360"
     inkscape:window-height="697"
     inkscape:window-x="-8"
     inkscape:window-y="-8"
     inkscape:window-maximized="1"
     inkscape:current-layer="svg11" />
  <title
     id="title2">activity-solid</title>
  <g
     id="invisible_box"
     data-name="invisible box">
    <rect
       width="48"
       height="48"
       fill="none"
       id="rect4"
       x="0"
       y="0" />
  </g>
  <path
     d="m 29,42 a 1.9,1.9 0 0 1 -1.9,-1.4 l -6.2,-18.7 -5,12.8 A 1.9,1.9 0 0 1 14.1,36 2.1,2.1 0 0 1 12.2,34.9 L 8.6,27.6 5.5,31.3 A 2,2 0 0 1 2.7,31.5 2,2 0 0 1 2.5,28.7 l 5,-6 a 1.9,1.9 0 0 1 1.7,-0.7 2.1,2.1 0 0 1 1.6,1.1 l 3,6 5.3,-13.8 a 2,2 0 0 1 3.8,0.1 L 28.8,33 36.1,5.5 a 1.9,1.9 0 0 1 1.8,-1.5 2,2 0 0 1 2,1.4 l 6,18 a 2,2 0 0 1 -3.8,1.2 L 38.2,13 30.9,40.5 A 1.9,1.9 0 0 1 29.1,42 Z"
     id="path7"
     style="fill:#0c465f;fill-opacity:1" />
</svg>
