<?xml version="1.0" encoding="UTF-8" standalone="no"?>
<!-- Generator: Adobe Illustrator 19.0.0, SVG Export Plug-In . SVG Version: 6.00 Build 0)  -->

<svg
   version="1.1"
   id="Layer_1"
   x="0px"
   y="0px"
   viewBox="0 0 455 455"
   style="enable-background:new 0 0 455 455;"
   xml:space="preserve"
   sodipodi:docname="moon.svg"
   inkscape:version="1.2 (dc2aedaf03, 2022-05-15)"
   xmlns:inkscape="http://www.inkscape.org/namespaces/inkscape"
   xmlns:sodipodi="http://sodipodi.sourceforge.net/DTD/sodipodi-0.dtd"
   xmlns="http://www.w3.org/2000/svg"
   xmlns:svg="http://www.w3.org/2000/svg"><defs
   id="defs1134" /><sodipodi:namedview
   id="namedview1132"
   pagecolor="#505050"
   bordercolor="#eeeeee"
   borderopacity="1"
   inkscape:showpageshadow="0"
   inkscape:pageopacity="0"
   inkscape:pagecheckerboard="0"
   inkscape:deskcolor="#505050"
   showgrid="false"
   inkscape:zoom="1.6747253"
   inkscape:cx="227.5"
   inkscape:cy="227.5"
   inkscape:window-width="1366"
   inkscape:window-height="697"
   inkscape:window-x="-8"
   inkscape:window-y="-8"
   inkscape:window-maximized="1"
   inkscape:current-layer="Layer_1" />
<g
   id="g1099"
   style="fill:#02577a;fill-opacity:1">
	<polygon
   points="320.18,162.705 280.63,171.052 307.72,201.052 303.437,241.245 340.34,224.751 377.243,241.245 372.96,201.052    400.05,171.052 360.5,162.705 340.34,127.67  "
   id="polygon1093"
   style="fill:#02577a;fill-opacity:1" />
	<polygon
   points="440,325.677 414.091,320.208 400.883,297.253 387.675,320.208 361.766,325.677 379.513,345.33 376.708,371.661    400.884,360.855 425.063,371.661 422.254,345.329  "
   id="polygon1095"
   style="fill:#02577a;fill-opacity:1" />
	<path
   d="M218,227.5c0-89.167,51.306-166.338,126-203.64C313.443,8.6,278.978,0,242.5,0C116.855,0,15,101.855,15,227.5   S116.855,455,242.5,455c36.478,0,70.943-8.6,101.5-23.86C269.306,393.838,218,316.667,218,227.5z"
   id="path1097"
   style="fill:#02577a;fill-opacity:1" />
</g>
<g
   id="g1101">
</g>
<g
   id="g1103">
</g>
<g
   id="g1105">
</g>
<g
   id="g1107">
</g>
<g
   id="g1109">
</g>
<g
   id="g1111">
</g>
<g
   id="g1113">
</g>
<g
   id="g1115">
</g>
<g
   id="g1117">
</g>
<g
   id="g1119">
</g>
<g
   id="g1121">
</g>
<g
   id="g1123">
</g>
<g
   id="g1125">
</g>
<g
   id="g1127">
</g>
<g
   id="g1129">
</g>
</svg>
