<?xml version="1.0" encoding="UTF-8" standalone="no"?>
<!-- Uploaded to: SVG Repo, www.svgrepo.com, Generator: SVG Repo Mixer Tools -->

<svg
   width="800px"
   height="800px"
   viewBox="0 0 1024 1024"
   class="icon"
   version="1.1"
   id="svg8"
   sodipodi:docname="plus-svgrepo-com.svg"
   inkscape:version="1.1.2 (b8e25be833, 2022-02-05)"
   xmlns:inkscape="http://www.inkscape.org/namespaces/inkscape"
   xmlns:sodipodi="http://sodipodi.sourceforge.net/DTD/sodipodi-0.dtd"
   xmlns="http://www.w3.org/2000/svg"
   xmlns:svg="http://www.w3.org/2000/svg">
  <defs
     id="defs12" />
  <sodipodi:namedview
     id="namedview10"
     pagecolor="#505050"
     bordercolor="#eeeeee"
     borderopacity="1"
     inkscape:pageshadow="0"
     inkscape:pageopacity="0"
     inkscape:pagecheckerboard="0"
     showgrid="false"
     inkscape:zoom="0.319375"
     inkscape:cx="-5548.3366"
     inkscape:cy="576.12524"
     inkscape:window-width="1920"
     inkscape:window-height="1009"
     inkscape:window-x="1352"
     inkscape:window-y="-8"
     inkscape:window-maximized="1"
     inkscape:current-layer="svg8" />
  <g
     id="g1294"
     transform="translate(-8252.1174,120.23483)">
    <g
       id="g1282">
      <g
         id="g983"
         transform="matrix(0.7360917,0,0,0.7360917,137.12495,133.11714)">
        <path
           d="m 512,512 m -448,0 a 448,448 0 1 0 896,0 448,448 0 1 0 -896,0 z"
           fill="#4caf50"
           id="path2" />
        <path
           d="M 448,298.66667 H 576 V 725.33333 H 448 Z"
           fill="#ffffff"
           id="path4" />
        <path
           d="M 298.66667,448 H 725.33333 V 576 H 298.66667 Z"
           fill="#ffffff"
           id="path6" />
      </g>
      <g
         id="g8"
         transform="matrix(3.9824468,0,0,4.4353174,-840.0272,-9.5864313)">
        <path
           d="M 5.888,166.4051 90.88,20.9 c 10.79614,6.355862 65.23586,36.484414 74.02814,42.213517 L 79.916138,208.62745 C 70.62069,220.90662 -5.888,185.04014 5.888,166.39628 Z"
           fill="#fbbc04"
           id="path2-8" />
        <path
           d="M 250.08422,166.40179 165.09222,20.905513 C 153.21029,1.13172 127.61912,-6.0539352 106.60064,5.6249614 85.582155,17.303858 79.182155,42.462479 91.064086,63.11903 l 84.992004,145.51393 c 11.88193,19.76497 37.4731,26.95062 58.49158,15.27173 20.10042,-11.6789 27.41849,-37.72911 15.53655,-57.48525 z"
           fill="#4285f4"
           id="path4-6" />
        <ellipse
           fill="#34a853"
           cx="42.663723"
           cy="187.92441"
           rx="42.663723"
           ry="41.604412"
           id="ellipse6" />
      </g>
      <path
         d="m 1045.8112,625.00154 c 0,-185.1764 82.7745,-378.404 179.9447,-378.404 53.9834,0 97.1701,36.2302 165.5491,144.9207 -64.7801,112.7161 -104.368,181.1508 -104.368,181.1508 -86.3734,152.9718 -115.1645,185.1764 -161.9502,185.1764 -46.7856,4.0256 -79.1756,-44.2813 -79.1756,-132.8439 m 565.0263,-68.4348 -61.1812,-112.716 c -14.3956,-28.1791 -32.3901,-56.3581 -46.7857,-80.5115 53.9834,-92.5882 97.1702,-140.8951 151.1536,-140.8951 107.9668,0 194.3402,181.1508 194.3402,406.583 0,84.537 -25.1922,132.8439 -75.5767,132.8439 -50.3845,0 -68.379,-36.2302 -161.9502,-205.3043 m -154.7525,-273.739 c -79.1756,-116.7416 -147.5546,-161.023 -226.7302,-161.023 -165.5492,0 -291.51042,245.56 -291.51042,503.1968 0,161.023 68.37902,261.6623 183.54352,261.6623 82.7746,0 140.3569,-44.2814 248.3237,-253.6112 0,0 43.1867,-88.5626 75.5767,-148.9462 10.7967,20.1279 21.5934,40.2557 32.3901,64.4091 l 50.3845,96.6139 c 97.1701,185.1763 151.1535,245.5599 248.3236,245.5599 111.5657,0 172.7469,-104.6648 172.7469,-269.7134 -3.5988,-273.739 -133.159,-499.1712 -287.9114,-499.1712 -82.7746,0 -147.5546,72.4604 -205.137,161.023"
         id="path2-2"
         style="fill:#0c465f;fill-opacity:1;stroke-width:38.0627" />
    </g>
  </g>
</svg>
