<?xml version="1.0" encoding="UTF-8" standalone="no"?>
<!-- Uploaded to: SVG Repo, www.svgrepo.com, Generator: SVG Repo Mixer Tools -->

<svg
   fill="#000000"
   width="800px"
   height="800px"
   viewBox="0 0 32 32"
   version="1.1"
   id="svg6"
   sodipodi:docname="pen-to-square-svgrepo-com.svg"
   inkscape:version="1.2 (dc2aedaf03, 2022-05-15)"
   xmlns:inkscape="http://www.inkscape.org/namespaces/inkscape"
   xmlns:sodipodi="http://sodipodi.sourceforge.net/DTD/sodipodi-0.dtd"
   xmlns="http://www.w3.org/2000/svg"
   xmlns:svg="http://www.w3.org/2000/svg">
  <defs
     id="defs10" />
  <sodipodi:namedview
     id="namedview8"
     pagecolor="#505050"
     bordercolor="#eeeeee"
     borderopacity="1"
     inkscape:showpageshadow="0"
     inkscape:pageopacity="0"
     inkscape:pagecheckerboard="0"
     inkscape:deskcolor="#505050"
     showgrid="false"
     inkscape:zoom="0.67375"
     inkscape:cx="313.17254"
     inkscape:cy="400.74212"
     inkscape:window-width="1360"
     inkscape:window-height="697"
     inkscape:window-x="-8"
     inkscape:window-y="-8"
     inkscape:window-maximized="1"
     inkscape:current-layer="svg6" />
  <title
     id="title2">pen-to-square</title>
  <path
     d="M7.263 19.051l-1.656 5.797c-0.030 0.102-0.048 0.22-0.048 0.342 0 0.691 0.559 1.251 1.25 1.252h0c0.126-0 0.248-0.019 0.363-0.053l-0.009 0.002 5.622-1.656c0.206-0.063 0.383-0.17 0.527-0.311l-0 0 17.568-17.394c0.229-0.227 0.371-0.541 0.371-0.889 0-0.345-0.14-0.657-0.365-0.883l-4.141-4.142c-0.227-0.226-0.539-0.366-0.885-0.366s-0.658 0.14-0.885 0.366v0l-17.394 17.394c-0.146 0.146-0.256 0.329-0.316 0.532l-0.002 0.009zM25.859 3.768l2.369 2.369-2.369 2.346-2.37-2.345zM9.578 20.049l12.144-12.144 2.361 2.336-12.307 12.184-3.141 0.924zM30 12.75c-0.69 0-1.25 0.56-1.25 1.25v14.75h-25.5v-25.5h14.75c0.69 0 1.25-0.56 1.25-1.25s-0.56-1.25-1.25-1.25v0h-16c-0.69 0-1.25 0.56-1.25 1.25v0 28c0 0.69 0.56 1.25 1.25 1.25h28c0.69-0.001 1.249-0.56 1.25-1.25v-16c-0-0.69-0.56-1.25-1.25-1.25h-0z"
     id="path4"
     style="fill:#0c465f;fill-opacity:1" />
</svg>
