<?xml version="1.0" encoding="UTF-8" standalone="no"?>
<!-- Generator: Adobe Illustrator 18.1.1, SVG Export Plug-In . SVG Version: 6.00 Build 0)  -->

<svg
   version="1.1"
   id="Capa_1"
   x="0px"
   y="0px"
   viewBox="0 0 27.442 27.442"
   style="enable-background:new 0 0 27.442 27.442;"
   xml:space="preserve"
   sodipodi:docname="phonewhite.svg"
   inkscape:version="1.2 (dc2aedaf03, 2022-05-15)"
   xmlns:inkscape="http://www.inkscape.org/namespaces/inkscape"
   xmlns:sodipodi="http://sodipodi.sourceforge.net/DTD/sodipodi-0.dtd"
   xmlns="http://www.w3.org/2000/svg"
   xmlns:svg="http://www.w3.org/2000/svg"><defs
   id="defs69" /><sodipodi:namedview
   id="namedview67"
   pagecolor="#505050"
   bordercolor="#eeeeee"
   borderopacity="1"
   inkscape:showpageshadow="0"
   inkscape:pageopacity="0"
   inkscape:pagecheckerboard="0"
   inkscape:deskcolor="#505050"
   showgrid="false"
   inkscape:zoom="19.641426"
   inkscape:cx="13.695543"
   inkscape:cy="13.746456"
   inkscape:window-width="1366"
   inkscape:window-height="697"
   inkscape:window-x="-8"
   inkscape:window-y="-8"
   inkscape:window-maximized="1"
   inkscape:current-layer="Capa_1" />
<g
   id="g34"
   style="fill:#1e94ca;fill-opacity:1">
	<path
   d="M19.494,0H7.948C6.843,0,5.951,0.896,5.951,1.999v23.446c0,1.102,0.892,1.997,1.997,1.997h11.546   c1.103,0,1.997-0.895,1.997-1.997V1.999C21.491,0.896,20.597,0,19.494,0z M10.872,1.214h5.7c0.144,0,0.261,0.215,0.261,0.481   s-0.117,0.482-0.261,0.482h-5.7c-0.145,0-0.26-0.216-0.26-0.482C10.612,1.429,10.727,1.214,10.872,1.214z M13.722,25.469   c-0.703,0-1.275-0.572-1.275-1.276s0.572-1.274,1.275-1.274c0.701,0,1.273,0.57,1.273,1.274S14.423,25.469,13.722,25.469z    M19.995,21.1H7.448V3.373h12.547V21.1z"
   id="path2"
   style="fill:#1e94ca;fill-opacity:1" />
	<g
   id="g4"
   style="fill:#1e94ca;fill-opacity:1">
	</g>
	<g
   id="g6"
   style="fill:#1e94ca;fill-opacity:1">
	</g>
	<g
   id="g8"
   style="fill:#1e94ca;fill-opacity:1">
	</g>
	<g
   id="g10"
   style="fill:#1e94ca;fill-opacity:1">
	</g>
	<g
   id="g12"
   style="fill:#1e94ca;fill-opacity:1">
	</g>
	<g
   id="g14"
   style="fill:#1e94ca;fill-opacity:1">
	</g>
	<g
   id="g16"
   style="fill:#1e94ca;fill-opacity:1">
	</g>
	<g
   id="g18"
   style="fill:#1e94ca;fill-opacity:1">
	</g>
	<g
   id="g20"
   style="fill:#1e94ca;fill-opacity:1">
	</g>
	<g
   id="g22"
   style="fill:#1e94ca;fill-opacity:1">
	</g>
	<g
   id="g24"
   style="fill:#1e94ca;fill-opacity:1">
	</g>
	<g
   id="g26"
   style="fill:#1e94ca;fill-opacity:1">
	</g>
	<g
   id="g28"
   style="fill:#1e94ca;fill-opacity:1">
	</g>
	<g
   id="g30"
   style="fill:#1e94ca;fill-opacity:1">
	</g>
	<g
   id="g32"
   style="fill:#1e94ca;fill-opacity:1">
	</g>
</g>
<g
   id="g36">
</g>
<g
   id="g38">
</g>
<g
   id="g40">
</g>
<g
   id="g42">
</g>
<g
   id="g44">
</g>
<g
   id="g46">
</g>
<g
   id="g48">
</g>
<g
   id="g50">
</g>
<g
   id="g52">
</g>
<g
   id="g54">
</g>
<g
   id="g56">
</g>
<g
   id="g58">
</g>
<g
   id="g60">
</g>
<g
   id="g62">
</g>
<g
   id="g64">
</g>
</svg>
