<?xml version="1.0" encoding="UTF-8" standalone="no"?>
<!-- Uploaded to: SVG Repo, www.svgrepo.com, Generator: SVG Repo Mixer Tools -->

<svg
   version="1.1"
   id="_x32_"
   viewBox="0 0 512 512"
   xml:space="preserve"
   sodipodi:docname="plan.svg"
   inkscape:version="1.1.2 (b8e25be833, 2022-02-05)"
   xmlns:inkscape="http://www.inkscape.org/namespaces/inkscape"
   xmlns:sodipodi="http://sodipodi.sourceforge.net/DTD/sodipodi-0.dtd"
   xmlns="http://www.w3.org/2000/svg"
   xmlns:svg="http://www.w3.org/2000/svg"><defs
   id="defs21" /><sodipodi:namedview
   id="namedview19"
   pagecolor="#505050"
   bordercolor="#eeeeee"
   borderopacity="1"
   inkscape:pageshadow="0"
   inkscape:pageopacity="0"
   inkscape:pagecheckerboard="0"
   showgrid="false"
   inkscape:zoom="0.99804688"
   inkscape:cx="255.49902"
   inkscape:cy="256.50098"
   inkscape:window-width="1360"
   inkscape:window-height="697"
   inkscape:window-x="-8"
   inkscape:window-y="-8"
   inkscape:window-maximized="1"
   inkscape:current-layer="_x32_" />
<style
   type="text/css"
   id="style2">
	.st0{fill:#000000;}
</style>
<g
   id="g16"
   style="fill:#0c465f;fill-opacity:1">
	<rect
   x="261.097"
   y="175.038"
   class="st0"
   width="39.95"
   height="63.92"
   id="rect4"
   style="fill:#0c465f;fill-opacity:1" />
	<rect
   x="333.007"
   y="135.088"
   class="st0"
   width="39.95"
   height="103.87"
   id="rect6"
   style="fill:#0c465f;fill-opacity:1" />
	<rect
   x="404.917"
   y="95.138"
   class="st0"
   width="39.95"
   height="143.82"
   id="rect8"
   style="fill:#0c465f;fill-opacity:1" />
	<path
   class="st0"
   d="M506.918,47.94V23.97h-7.99h-127.84V0h-31.96v23.97h-127.84h-7.99v23.97h7.99v148.915h15.98V47.94h255.68   v239.7h-255.68v-13.28v-13.718h-15.98v16.003v10.994h-7.99v23.97h7.99h136.08v63l-54.776,104.58   c-7.966,0.803-14.2,7.451-14.2,15.628c0,8.723,7.07,15.793,15.792,15.793c8.723,0,15.793-7.07,15.793-15.793   c0-3.347-1.053-6.438-2.832-8.989l40.223-76.786v78.347h15.98v-76.436l39.443,75.296c-1.6,2.474-2.551,5.408-2.551,8.568   c0,8.723,7.07,15.793,15.792,15.793c8.724,0,15.793-7.07,15.793-15.793c0-8.357-6.507-15.129-14.724-15.684l-53.753-102.614V311.61   h135.58h7.99v-23.97h-7.99V47.94H506.918z"
   id="path10"
   style="fill:#0c465f;fill-opacity:1" />
	<path
   class="st0"
   d="M99.515,107.187c22.428,0,40.601-18.188,40.601-40.606c0-22.433-18.173-40.605-40.601-40.605   c-22.437,0-40.609,18.172-40.609,40.605C58.906,88.998,77.078,107.187,99.515,107.187z"
   id="path12"
   style="fill:#0c465f;fill-opacity:1" />
	<path
   class="st0"
   d="M254.949,231.289c0-9.855-7.971-17.814-17.806-17.814H204.11l-10.17-53.746   c-4.405-23.01-21.415-41.081-41.089-41.081H46.167c-19.675,0-41.086,21.403-41.086,41.081v136.478   c0,9.839,7.979,17.814,17.814,17.814c9.84,0,17.814-7.975,17.814-17.814V183.996h8.216V488.6c0,12.929,10.48,23.4,23.401,23.4   c12.924,0,23.407-10.472,23.407-23.4V311.836h7.561V488.6c0,12.929,10.476,23.4,23.4,23.4c12.917,0,23.401-10.472,23.401-23.4   V183.996h8.22l7.256,46.466c1.677,10.721,10.916,18.633,21.77,18.633h49.801C246.978,249.095,254.949,241.121,254.949,231.289z"
   id="path14"
   style="fill:#0c465f;fill-opacity:1" />
</g>
</svg>
