<?xml version="1.0" encoding="UTF-8" standalone="no"?>
<!-- Uploaded to: SVG Repo, www.svgrepo.com, Generator: SVG Repo Mixer Tools -->

<svg
   fill="#000000"
   width="800px"
   height="800px"
   viewBox="0 0 35 35"
   data-name="Layer 2"
   id="Layer_2"
   version="1.1"
   sodipodi:docname="secure.svg"
   inkscape:version="1.2 (dc2aedaf03, 2022-05-15)"
   xmlns:inkscape="http://www.inkscape.org/namespaces/inkscape"
   xmlns:sodipodi="http://sodipodi.sourceforge.net/DTD/sodipodi-0.dtd"
   xmlns="http://www.w3.org/2000/svg"
   xmlns:svg="http://www.w3.org/2000/svg">
  <defs
     id="defs9" />
  <sodipodi:namedview
     id="namedview7"
     pagecolor="#505050"
     bordercolor="#eeeeee"
     borderopacity="1"
     inkscape:showpageshadow="0"
     inkscape:pageopacity="0"
     inkscape:pagecheckerboard="0"
     inkscape:deskcolor="#505050"
     showgrid="false"
     inkscape:zoom="0.67375"
     inkscape:cx="313.17254"
     inkscape:cy="400.74212"
     inkscape:window-width="1360"
     inkscape:window-height="697"
     inkscape:window-x="-8"
     inkscape:window-y="-8"
     inkscape:window-maximized="1"
     inkscape:current-layer="Layer_2" />
  <path
     d="M17.5,34.44A3.07,3.07,0,0,1,15.89,34L9.82,30.45A14.79,14.79,0,0,1,2.25,17.7V8A3.2,3.2,0,0,1,4.34,5L16.4.57a3.2,3.2,0,0,1,2.2,0L30.66,5a3.2,3.2,0,0,1,2.09,3V17.7a14.79,14.79,0,0,1-7.57,12.75L19.11,34A3.07,3.07,0,0,1,17.5,34.44Zm0-31.56a.67.67,0,0,0-.24,0L5.2,7.33A.69.69,0,0,0,4.75,8V17.7a12.3,12.3,0,0,0,6.33,10.59l6.07,3.56a.73.73,0,0,0,.7,0l6.07-3.56h0A12.3,12.3,0,0,0,30.25,17.7V8a.69.69,0,0,0-.45-.65L17.74,2.92A.67.67,0,0,0,17.5,2.88Z"
     id="path2"
     style="fill:#0c465f;fill-opacity:1" />
  <path
     d="M16.4,22.35a1.3,1.3,0,0,1-.81-.29l-4.27-3.6a1.25,1.25,0,0,1,1.61-1.92l3.35,2.82L22,13.06a1.25,1.25,0,0,1,1.86,1.68l-6.48,7.2A1.27,1.27,0,0,1,16.4,22.35Z"
     id="path4"
     style="fill:#0c465f;fill-opacity:1" />
</svg>
