<?xml version="1.0" encoding="UTF-8" standalone="no"?>
<!-- Uploaded to: SVG Repo, www.svgrepo.com, Generator: SVG Repo Mixer Tools -->

<svg
   width="800px"
   height="800px"
   viewBox="0 0 18 18"
   mirror-in-rtl="true"
   version="1.1"
   id="svg4"
   sodipodi:docname="serv-reporting.svg"
   inkscape:version="1.1.2 (b8e25be833, 2022-02-05)"
   xmlns:inkscape="http://www.inkscape.org/namespaces/inkscape"
   xmlns:sodipodi="http://sodipodi.sourceforge.net/DTD/sodipodi-0.dtd"
   xmlns="http://www.w3.org/2000/svg"
   xmlns:svg="http://www.w3.org/2000/svg">
  <defs
     id="defs8" />
  <sodipodi:namedview
     id="namedview6"
     pagecolor="#505050"
     bordercolor="#eeeeee"
     borderopacity="1"
     inkscape:pageshadow="0"
     inkscape:pageopacity="0"
     inkscape:pagecheckerboard="0"
     showgrid="false"
     inkscape:zoom="0.63875"
     inkscape:cx="400.78278"
     inkscape:cy="400.78278"
     inkscape:window-width="1366"
     inkscape:window-height="697"
     inkscape:window-x="-8"
     inkscape:window-y="-8"
     inkscape:window-maximized="1"
     inkscape:current-layer="svg4" />
  <path
     fill="#494c4e"
     d="M15 0H3a1 1 0 0 0-1 1v16a1 1 0 0 0 1 1h12a1 1 0 0 0 1-1V1a1 1 0 0 0-1-1zM6 14.983a1 1 0 1 1-2 0v-2a1 1 0 0 1 2 0v2zM4 5.5A2.5 2.5 0 0 1 6.5 3v2.5H9a2.5 2.5 0 0 1-5 0zm6 9.468a1 1 0 1 1-2 0v-5a1 1 0 0 1 2 0v5zM7.5 4.5V2A2.5 2.5 0 0 1 10 4.5H7.5zM14 15a1 1 0 0 1-2 0V4a1 1 0 0 1 2 0v11z"
     id="path2"
     style="fill:#0c465f;fill-opacity:1" />
</svg>
