<?xml version="1.0" encoding="UTF-8" standalone="no"?>
<!-- Uploaded to: SVG Repo, www.svgrepo.com, Generator: SVG Repo Mixer Tools -->

<svg
   width="800px"
   height="800px"
   viewBox="0 0 24 24"
   version="1.1"
   id="svg8"
   sodipodi:docname="serv-support.svg"
   inkscape:version="1.1.2 (b8e25be833, 2022-02-05)"
   xmlns:inkscape="http://www.inkscape.org/namespaces/inkscape"
   xmlns:sodipodi="http://sodipodi.sourceforge.net/DTD/sodipodi-0.dtd"
   xmlns="http://www.w3.org/2000/svg"
   xmlns:svg="http://www.w3.org/2000/svg">
  <defs
     id="defs12" />
  <sodipodi:namedview
     id="namedview10"
     pagecolor="#505050"
     bordercolor="#eeeeee"
     borderopacity="1"
     inkscape:pageshadow="0"
     inkscape:pageopacity="0"
     inkscape:pagecheckerboard="0"
     showgrid="false"
     inkscape:zoom="0.63875"
     inkscape:cx="400.78278"
     inkscape:cy="400.78278"
     inkscape:window-width="1366"
     inkscape:window-height="697"
     inkscape:window-x="-8"
     inkscape:window-y="-8"
     inkscape:window-maximized="1"
     inkscape:current-layer="svg8" />
  <title
     id="title2">support</title>
  <rect
     width="24"
     height="24"
     fill="none"
     id="rect4" />
  <path
     d="M12,2a8,8,0,0,0-8,8v1.9A2.92,2.92,0,0,0,3,14a2.88,2.88,0,0,0,1.94,2.61C6.24,19.72,8.85,22,12,22h3V20H12c-2.26,0-4.31-1.7-5.34-4.39l-.21-.55L5.86,15A1,1,0,0,1,5,14a1,1,0,0,1,.5-.86l.5-.29V11a1,1,0,0,1,1-1H17a1,1,0,0,1,1,1v5H13.91a1.5,1.5,0,1,0-1.52,2H20a2,2,0,0,0,2-2V14a2,2,0,0,0-2-2V10A8,8,0,0,0,12,2Z"
     id="path6"
     style="fill:#0c465f;fill-opacity:1" />
</svg>
