<?xml version="1.0" encoding="UTF-8" standalone="no"?>
<!-- Uploaded to: SVG Repo, www.svgrepo.com, Generator: SVG Repo Mixer Tools -->

<svg
   height="800px"
   width="800px"
   version="1.1"
   id="_x32_"
   viewBox="0 0 512 512"
   xml:space="preserve"
   sodipodi:docname="serv-target.svg"
   inkscape:version="1.1.2 (b8e25be833, 2022-02-05)"
   xmlns:inkscape="http://www.inkscape.org/namespaces/inkscape"
   xmlns:sodipodi="http://sodipodi.sourceforge.net/DTD/sodipodi-0.dtd"
   xmlns="http://www.w3.org/2000/svg"
   xmlns:svg="http://www.w3.org/2000/svg"><defs
   id="defs15" /><sodipodi:namedview
   id="namedview13"
   pagecolor="#505050"
   bordercolor="#eeeeee"
   borderopacity="1"
   inkscape:pageshadow="0"
   inkscape:pageopacity="0"
   inkscape:pagecheckerboard="0"
   showgrid="false"
   inkscape:zoom="0.63875"
   inkscape:cx="400.78278"
   inkscape:cy="400.78278"
   inkscape:window-width="1366"
   inkscape:window-height="697"
   inkscape:window-x="-8"
   inkscape:window-y="-8"
   inkscape:window-maximized="1"
   inkscape:current-layer="_x32_" />
<style
   type="text/css"
   id="style2">
	.st0{fill:#000000;}
</style>
<g
   id="g10"
   style="fill:#0c465f;fill-opacity:1">
	<path
   class="st0"
   d="M256.008,0.008C114.849,0.008,0,114.833,0,256c0,141.158,114.849,255.992,256.008,255.992   C397.16,511.992,512,397.159,512,256C512,114.833,397.16,0.008,256.008,0.008z M256.008,460.794   c-112.921,0-204.802-91.881-204.802-204.794c0-112.912,91.88-204.802,204.802-204.802c112.92,0,204.786,91.89,204.786,204.802   C460.794,368.913,368.928,460.794,256.008,460.794z"
   id="path4"
   style="fill:#0c465f;fill-opacity:1" />
	<path
   class="st0"
   d="M256.008,102.397c-84.698,0-153.612,68.905-153.612,153.603c0,84.69,68.913,153.587,153.612,153.587   c84.683,0,153.595-68.896,153.595-153.587C409.603,171.302,340.691,102.397,256.008,102.397z M256.008,358.405   c-56.468,0-102.405-45.937-102.405-102.405c0-56.452,45.937-102.405,102.405-102.405c56.46,0,102.388,45.952,102.388,102.405   C358.397,312.469,312.468,358.405,256.008,358.405z"
   id="path6"
   style="fill:#0c465f;fill-opacity:1" />
	<path
   class="st0"
   d="M256.008,204.809c-28.287,0-51.215,22.92-51.215,51.191c0,28.271,22.928,51.19,51.215,51.19   c28.279,0,51.198-22.92,51.198-51.19C307.207,227.73,284.287,204.809,256.008,204.809z"
   id="path8"
   style="fill:#0c465f;fill-opacity:1" />
</g>
</svg>
