<?xml version="1.0" encoding="UTF-8" standalone="no"?>
<!-- Uploaded to: SVG Repo, www.svgrepo.com, Generator: SVG Repo Mixer Tools -->

<svg
   fill="#000000"
   width="800px"
   height="800px"
   viewBox="0 0 32 32"
   version="1.1"
   id="svg6"
   sodipodi:docname="serv-clipboard.svg"
   inkscape:version="1.1.2 (b8e25be833, 2022-02-05)"
   xmlns:inkscape="http://www.inkscape.org/namespaces/inkscape"
   xmlns:sodipodi="http://sodipodi.sourceforge.net/DTD/sodipodi-0.dtd"
   xmlns="http://www.w3.org/2000/svg"
   xmlns:svg="http://www.w3.org/2000/svg">
  <defs
     id="defs10" />
  <sodipodi:namedview
     id="namedview8"
     pagecolor="#505050"
     bordercolor="#eeeeee"
     borderopacity="1"
     inkscape:pageshadow="0"
     inkscape:pageopacity="0"
     inkscape:pagecheckerboard="0"
     showgrid="false"
     inkscape:zoom="0.63875"
     inkscape:cx="400.78278"
     inkscape:cy="400.78278"
     inkscape:window-width="1366"
     inkscape:window-height="697"
     inkscape:window-x="-8"
     inkscape:window-y="-8"
     inkscape:window-maximized="1"
     inkscape:current-layer="svg6" />
  <title
     id="title2">clipboard2</title>
  <path
     d="M26 32h-20c-1.105 0-2-0.894-2-1.996v-25.014c0-1.103 0.895-1.996 2-1.996h6v1.996h-5c-0.552 0-1 0.446-1 0.998v23.018c0 0.551 0.448 0.998 1 0.998h18c0.553 0 1-0.447 1-0.998v-23.018c0-0.552-0.447-0.998-1-0.998h-5v-1.996h6c1.104 0 2 0.894 2 1.996v25.014c0 1.102-0.896 1.996-2 1.996zM25 5.988v23.018h-18v-23.018h1v4.055h16v-4.055h1zM11 13.037h-1v0.998h1v-0.998zM11 15.033h-1v0.998h1v-0.998zM11 17.029h-1v0.998h1v-0.998zM11 19.025h-1v0.998h1v-0.998zM11 21.021h-1v0.998h1v-0.998zM11 23.018h-1v0.998h1v-0.998zM11 25.014h-1v0.998h1v-0.998zM22 13.037h-10v0.998h10v-0.998zM22 15.033h-10v0.998h10v-0.998zM22 17.029h-10v0.998h10v-0.998zM22 19.025h-10v0.998h10v-0.998zM22 21.021h-10v0.998h10v-0.998zM22 23.018h-10v0.998h10v-0.998zM22 25.014h-10v0.998h10v-0.998zM22 5.988c0.553 0 1 0.446 1 0.998 0 0.551 0 1.996 0 1.996h-14c0 0 0-1.445 0-1.996s0.447-0.998 1-0.998h3c0 0 0.012-1.274 0.012-2.896 0-1.684 1.3-3.092 2.988-3.092s3.033 1.48 3.033 3.103c0 1.746-0.033 2.885-0.033 2.885h3zM16 2.994c-0.553 0-1 0.446-1 0.998s0.447 0.998 1 0.998 1-0.447 1-0.998c0-0.552-0.447-0.998-1-0.998z"
     id="path4"
     style="fill:#0c465f;fill-opacity:1" />
</svg>
