<?xml version="1.0" encoding="UTF-8" standalone="no"?>
<!-- Generator: Adobe Illustrator 17.1.0, SVG Export Plug-In . SVG Version: 6.00 Build 0)  -->

<svg
   version="1.1"
   id="Capa_1"
   x="0px"
   y="0px"
   viewBox="0 0 207.628 207.628"
   style="enable-background:new 0 0 207.628 207.628;"
   xml:space="preserve"
   sodipodi:docname="sun-svgrepo-com.svg"
   inkscape:version="1.2 (dc2aedaf03, 2022-05-15)"
   xmlns:inkscape="http://www.inkscape.org/namespaces/inkscape"
   xmlns:sodipodi="http://sodipodi.sourceforge.net/DTD/sodipodi-0.dtd"
   xmlns="http://www.w3.org/2000/svg"
   xmlns:svg="http://www.w3.org/2000/svg"><defs
   id="defs1884" /><sodipodi:namedview
   id="namedview1882"
   pagecolor="#505050"
   bordercolor="#eeeeee"
   borderopacity="1"
   inkscape:showpageshadow="0"
   inkscape:pageopacity="0"
   inkscape:pagecheckerboard="0"
   inkscape:deskcolor="#505050"
   showgrid="false"
   inkscape:zoom="3.6700252"
   inkscape:cx="103.814"
   inkscape:cy="103.814"
   inkscape:window-width="1824"
   inkscape:window-height="943"
   inkscape:window-x="1358"
   inkscape:window-y="-8"
   inkscape:window-maximized="1"
   inkscape:current-layer="Capa_1" />
<circle
   cx="103.814"
   cy="103.814"
   r="45.868"
   id="circle1831"
   style="fill:#1e94ca;fill-opacity:1" />
<path
   d="M103.814,157.183c-29.427,0-53.368-23.941-53.368-53.368s23.941-53.368,53.368-53.368s53.368,23.941,53.368,53.368  S133.241,157.183,103.814,157.183z M103.814,65.446c-21.156,0-38.368,17.212-38.368,38.368s17.212,38.368,38.368,38.368  s38.368-17.212,38.368-38.368S124.97,65.446,103.814,65.446z"
   id="path1833"
   style="fill:#1e94ca;fill-opacity:1" />
<path
   d="M103.814,39.385c-4.142,0-7.5-3.358-7.5-7.5V7.5c0-4.142,3.358-7.5,7.5-7.5s7.5,3.358,7.5,7.5v24.385  C111.314,36.027,107.956,39.385,103.814,39.385z"
   id="path1835"
   style="fill:#1e94ca;fill-opacity:1" />
<path
   d="M103.814,207.628c-4.142,0-7.5-3.358-7.5-7.5v-24.385c0-4.142,3.358-7.5,7.5-7.5s7.5,3.358,7.5,7.5v24.385  C111.314,204.271,107.956,207.628,103.814,207.628z"
   id="path1837"
   style="fill:#1e94ca;fill-opacity:1" />
<path
   d="M200.128,111.314h-24.385c-4.142,0-7.5-3.358-7.5-7.5s3.358-7.5,7.5-7.5h24.385c4.142,0,7.5,3.358,7.5,7.5  S204.271,111.314,200.128,111.314z"
   id="path1839"
   style="fill:#1e94ca;fill-opacity:1" />
<path
   d="M31.885,111.314H7.5c-4.142,0-7.5-3.358-7.5-7.5s3.358-7.5,7.5-7.5h24.385c4.142,0,7.5,3.358,7.5,7.5  S36.027,111.314,31.885,111.314z"
   id="path1841"
   style="fill:#1e94ca;fill-opacity:1" />
<path
   d="M154.676,60.452c-1.919,0-3.839-0.732-5.303-2.197c-2.929-2.929-2.929-7.678,0-10.606l17.243-17.242  c2.929-2.929,7.678-2.93,10.606,0c2.929,2.929,2.929,7.678,0,10.606l-17.243,17.242C158.515,59.72,156.595,60.452,154.676,60.452z"
   id="path1843"
   style="fill:#1e94ca;fill-opacity:1" />
<path
   d="M35.709,179.419c-1.919,0-3.839-0.732-5.303-2.197c-2.929-2.929-2.929-7.678,0-10.606l17.243-17.243  c2.929-2.929,7.678-2.929,10.606,0c2.929,2.929,2.929,7.678,0,10.606l-17.243,17.243C39.548,178.687,37.629,179.419,35.709,179.419z  "
   id="path1845"
   style="fill:#1e94ca;fill-opacity:1" />
<path
   d="M171.918,179.419c-1.919,0-3.839-0.732-5.303-2.197l-17.243-17.243c-2.929-2.929-2.929-7.678,0-10.606  c2.929-2.929,7.678-2.929,10.606,0l17.243,17.243c2.929,2.929,2.929,7.678,0,10.606  C175.757,178.687,173.838,179.419,171.918,179.419z"
   id="path1847"
   style="fill:#1e94ca;fill-opacity:1" />
<path
   d="M52.952,60.452c-1.919,0-3.839-0.732-5.303-2.197L30.406,41.013c-2.929-2.929-2.929-7.677,0-10.606  c2.929-2.929,7.678-2.93,10.606,0l17.243,17.242c2.929,2.929,2.929,7.677,0,10.606C56.791,59.72,54.872,60.452,52.952,60.452z"
   id="path1849"
   style="fill:#1e94ca;fill-opacity:1" />
<g
   id="g1851">
</g>
<g
   id="g1853">
</g>
<g
   id="g1855">
</g>
<g
   id="g1857">
</g>
<g
   id="g1859">
</g>
<g
   id="g1861">
</g>
<g
   id="g1863">
</g>
<g
   id="g1865">
</g>
<g
   id="g1867">
</g>
<g
   id="g1869">
</g>
<g
   id="g1871">
</g>
<g
   id="g1873">
</g>
<g
   id="g1875">
</g>
<g
   id="g1877">
</g>
<g
   id="g1879">
</g>
</svg>
