<?xml version="1.0" encoding="UTF-8" standalone="no"?>
<!-- Generator: Adobe Illustrator 16.0.0, SVG Export Plug-In . SVG Version: 6.00 Build 0)  -->

<svg
   version="1.1"
   id="Capa_1"
   x="0px"
   y="0px"
   width="437.75px"
   height="437.75px"
   viewBox="0 0 437.75 437.75"
   style="enable-background:new 0 0 437.75 437.75;"
   xml:space="preserve"
   sodipodi:docname="timewhite.svg"
   inkscape:version="1.2 (dc2aedaf03, 2022-05-15)"
   xmlns:inkscape="http://www.inkscape.org/namespaces/inkscape"
   xmlns:sodipodi="http://sodipodi.sourceforge.net/DTD/sodipodi-0.dtd"
   xmlns="http://www.w3.org/2000/svg"
   xmlns:svg="http://www.w3.org/2000/svg"><defs
   id="defs1834" /><sodipodi:namedview
   id="namedview1832"
   pagecolor="#505050"
   bordercolor="#eeeeee"
   borderopacity="1"
   inkscape:showpageshadow="0"
   inkscape:pageopacity="0"
   inkscape:pagecheckerboard="0"
   inkscape:deskcolor="#505050"
   showgrid="false"
   inkscape:zoom="1.2312964"
   inkscape:cx="218.46892"
   inkscape:cy="218.46892"
   inkscape:window-width="1366"
   inkscape:window-height="697"
   inkscape:window-x="-8"
   inkscape:window-y="-8"
   inkscape:window-maximized="1"
   inkscape:current-layer="Capa_1" />
<g
   id="g1799"
   style="fill:#ffffff">
	<path
   d="M218.872,0C97.989,0,0,97.989,0,218.872C0,339.764,97.989,437.75,218.872,437.75c120.892,0,218.878-97.986,218.878-218.878   C437.75,97.989,339.764,0,218.872,0z M133.145,115.466c4.342,0,8.404,1.708,11.436,4.807l85.728,87.388   c6.173,6.311,6.082,16.468-0.217,22.635c-3.029,2.942-7.001,4.575-11.208,4.575c-4.347,0-8.424-1.717-11.442-4.828l-85.709-87.369   c-2.996-3.044-4.618-7.077-4.582-11.364c0.036-4.267,1.748-8.269,4.795-11.265C124.954,117.087,128.932,115.466,133.145,115.466z    M218.884,410.968c-105.934,0-192.111-86.175-192.111-192.096c0-54.491,23.293-106.633,63.888-143.061   c2.963-2.636,6.752-4.083,10.683-4.083c4.531,0,8.878,1.931,11.901,5.308c2.874,3.204,4.324,7.305,4.078,11.583   c-0.24,4.26-2.12,8.19-5.306,11.031c-33.825,30.352-53.238,73.805-53.238,119.222c0,88.28,71.826,160.103,160.112,160.103   c88.267,0,160.097-71.817,160.097-160.103c0-81.419-63.897-151.134-144.098-159.301v72.877c0,8.824-7.176,16.006-16.006,16.006   c-8.83,0-16.012-7.182-16.012-16.006V42.766c0-8.824,7.182-16.006,16.012-16.006c1.543,0,3.104,0.018,4.642,0.057   c103.358,2.447,187.455,88.598,187.455,192.048C410.98,324.793,324.806,410.968,218.884,410.968z"
   id="path1797"
   style="fill:#ffffff" />
</g>
<g
   id="g1801">
</g>
<g
   id="g1803">
</g>
<g
   id="g1805">
</g>
<g
   id="g1807">
</g>
<g
   id="g1809">
</g>
<g
   id="g1811">
</g>
<g
   id="g1813">
</g>
<g
   id="g1815">
</g>
<g
   id="g1817">
</g>
<g
   id="g1819">
</g>
<g
   id="g1821">
</g>
<g
   id="g1823">
</g>
<g
   id="g1825">
</g>
<g
   id="g1827">
</g>
<g
   id="g1829">
</g>
</svg>
