<?xml version="1.0" encoding="UTF-8" standalone="no"?>
<!-- Uploaded to: SVG Repo, www.svgrepo.com, Generator: SVG Repo Mixer Tools -->

<svg
   width="800px"
   height="800px"
   viewBox="0 0 20 20"
   version="1.1"
   id="svg8"
   sodipodi:docname="youtube.blue.svg"
   inkscape:version="1.2 (dc2aedaf03, 2022-05-15)"
   xmlns:inkscape="http://www.inkscape.org/namespaces/inkscape"
   xmlns:sodipodi="http://sodipodi.sourceforge.net/DTD/sodipodi-0.dtd"
   xmlns="http://www.w3.org/2000/svg"
   xmlns:svg="http://www.w3.org/2000/svg">
  <defs
     id="defs12" />
  <sodipodi:namedview
     id="namedview10"
     pagecolor="#505050"
     bordercolor="#eeeeee"
     borderopacity="1"
     inkscape:showpageshadow="0"
     inkscape:pageopacity="0"
     inkscape:pagecheckerboard="0"
     inkscape:deskcolor="#505050"
     showgrid="false"
     inkscape:zoom="0.67375"
     inkscape:cx="114.28571"
     inkscape:cy="286.4564"
     inkscape:window-width="1360"
     inkscape:window-height="697"
     inkscape:window-x="-8"
     inkscape:window-y="-8"
     inkscape:window-maximized="1"
     inkscape:current-layer="svg8" />
  <rect
     x="-0.8534323"
     fill="none"
     width="20"
     height="19.332096"
     id="rect2"
     y="-0.44526902"
     style="stroke-width:0.983161" />
  <g
     id="g6"
     style="fill:#ffffff;fill-opacity:1"
     transform="matrix(1.1182746,0,0,1.3169968,-1.164193,-3.0512543)">
    <path
       d="M 17.7,5.3 C 17.5,4.6 17,4.1 16.3,3.9 14.2,3.7 12.1,3.5 10,3.6 7.9,3.6 5.8,3.7 3.7,3.9 3.1,4.1 2.5,4.7 2.3,5.3 2.1,6.9 2,8.4 2,10 c 0,1.6 0.1,3.1 0.3,4.7 0.2,0.7 0.7,1.2 1.4,1.4 2.1,0.2 4.2,0.4 6.3,0.3 2.1,0 4.2,-0.1 6.3,-0.3 0.7,-0.2 1.2,-0.7 1.4,-1.4 C 17.9,13.2 18,11.6 18,10 18,8.4 17.9,6.9 17.7,5.3 Z M 8,13 V 7 l 5.2,3 z"
       id="path4"
       style="fill:#ffffff;fill-opacity:1" />
  </g>
</svg>
