<?xml version="1.0" encoding="UTF-8" standalone="no"?>
<svg
   width="16"
   height="16"
   fill="currentColor"
   class="bi bi-list"
   viewBox="0 0 16 16"
   version="1.1"
   id="svg4"
   sodipodi:docname="menu-button.svg"
   inkscape:version="1.2 (dc2aedaf03, 2022-05-15)"
   xmlns:inkscape="http://www.inkscape.org/namespaces/inkscape"
   xmlns:sodipodi="http://sodipodi.sourceforge.net/DTD/sodipodi-0.dtd"
   xmlns="http://www.w3.org/2000/svg"
   xmlns:svg="http://www.w3.org/2000/svg">
  <defs
     id="defs8">
    <rect
       x="16.623377"
       y="15.792208"
       width="36.927644"
       height="15.317254"
       id="rect1882" />
  </defs>
  <sodipodi:namedview
     id="namedview6"
     pagecolor="#505050"
     bordercolor="#eeeeee"
     borderopacity="1"
     inkscape:showpageshadow="0"
     inkscape:pageopacity="0"
     inkscape:pagecheckerboard="0"
     inkscape:deskcolor="#505050"
     showgrid="false"
     inkscape:zoom="8.421875"
     inkscape:cx="3.8589981"
     inkscape:cy="-4.5120594"
     inkscape:window-width="1360"
     inkscape:window-height="697"
     inkscape:window-x="-8"
     inkscape:window-y="-8"
     inkscape:window-maximized="1"
     inkscape:current-layer="svg4" />
  <path
     fill-rule="evenodd"
     d="M 2.3718666,12 A 0.50847275,0.5 0 0 1 2.8803393,11.5 H 13.049794 a 0.50847275,0.5 0 0 1 0,1 H 2.8803393 A 0.50847275,0.5 0 0 1 2.3718666,12 Z m 0,-3.9999999 a 0.50847275,0.5 0 0 1 0.5084727,-0.5 H 13.049794 a 0.50847275,0.5 0 0 1 0,1 H 2.8803393 a 0.50847275,0.5 0 0 1 -0.5084727,-0.5 z m 0,-4 a 0.50847275,0.5 0 0 1 0.5084727,-0.5 H 13.049794 a 0.50847275,0.5 0 0 1 0,1 H 2.8803393 a 0.50847275,0.5 0 0 1 -0.5084727,-0.5 z"
     id="path2"
     style="fill:#000000;fill-opacity:1;stroke-width:1.00844" />
  <text
     xml:space="preserve"
     id="text1880"
     style="fill:#000000;-inkscape-font-specification:'Nimbus Roman,  Bold';font-family:'Nimbus Roman';font-size:10px;font-weight:bold;fill-opacity:1;white-space:pre;shape-inside:url(#rect1882)" />
</svg>
