<?xml version="1.0" encoding="UTF-8" standalone="no"?>
<svg
   width="16"
   height="16"
   fill="currentColor"
   class="bi bi-list"
   viewBox="0 0 16 16"
   version="1.1"
   id="svg4"
   sodipodi:docname="logomini.svg"
   inkscape:version="1.2 (dc2aedaf03, 2022-05-15)"
   xmlns:inkscape="http://www.inkscape.org/namespaces/inkscape"
   xmlns:sodipodi="http://sodipodi.sourceforge.net/DTD/sodipodi-0.dtd"
   xmlns="http://www.w3.org/2000/svg"
   xmlns:svg="http://www.w3.org/2000/svg">
  <defs
     id="defs8">
    <rect
       x="16.623377"
       y="15.792208"
       width="36.927644"
       height="15.317254"
       id="rect1882" />
  </defs>
  <sodipodi:namedview
     id="namedview6"
     pagecolor="#505050"
     bordercolor="#eeeeee"
     borderopacity="1"
     inkscape:showpageshadow="0"
     inkscape:pageopacity="0"
     inkscape:pagecheckerboard="0"
     inkscape:deskcolor="#505050"
     showgrid="false"
     inkscape:zoom="33.6875"
     inkscape:cx="15.643785"
     inkscape:cy="8.9944341"
     inkscape:window-width="1920"
     inkscape:window-height="1009"
     inkscape:window-x="1352"
     inkscape:window-y="-8"
     inkscape:window-maximized="1"
     inkscape:current-layer="svg4" />
  <text
     xml:space="preserve"
     id="text1880"
     style="fill:#000000;-inkscape-font-specification:'Nimbus Roman,  Bold';font-family:'Nimbus Roman';font-size:10px;font-weight:bold;fill-opacity:1;white-space:pre;shape-inside:url(#rect1882)" />
  <g
     id="g504"
     transform="matrix(0.14280559,0,0,0.14280559,-6.9882961,6.2706002)">
    <g
       id="g3006"
       transform="matrix(0.37905871,0,0,0.37905899,56.116803,-42.011304)"
       inkscape:export-filename="/home/robert/Pictures/logomini.png"
       inkscape:export-xdpi="96"
       inkscape:export-ydpi="96">
      <g
         id="g2996">
        <g
           id="g2987">
          <path
             d="m 255.569,84.452376 c -0.002,-4.83 -1.035,-9.098 -3.124,-12.761 -2.052,-3.602 -5.125,-6.621 -9.247,-9.008 -34.025,-19.619 -68.083,-39.178 -102.097,-58.8169999 -9.17,-5.294 -18.061,-5.101 -27.163,0.2689999 -13.543,7.987 -81.348,46.834 -101.553,58.537 -8.321,4.817 -12.37,12.189 -12.372,21.771 C 0,123.89838 0.013,163.35238 0,202.80838 c 0,4.724 0.991,8.909 2.988,12.517 2.053,3.711 5.169,6.813 9.386,9.254 20.206,11.703 88.02,50.547 101.56,58.536 9.106,5.373 17.997,5.565 27.17,0.269 34.015,-19.64 68.075,-39.198 102.105,-58.817 4.217,-2.44 7.333,-5.544 9.386,-9.252 1.994,-3.608 2.987,-7.793 2.987,-12.518 0,0 0,-78.889 -0.013,-118.345004"
             fill="#a179dc"
             fill-rule="nonzero"
             id="path2-3"
             style="fill:#02a9f7;fill-opacity:1" />
          <path
             d="m 128.182,143.24138 -125.194,72.084 c 2.053,3.711 5.169,6.813 9.386,9.254 20.206,11.703 88.02,50.547 101.56,58.536 9.106,5.373 17.997,5.565 27.17,0.269 34.015,-19.64 68.075,-39.198 102.105,-58.817 4.217,-2.44 7.333,-5.544 9.386,-9.252 l -124.413,-72.074"
             fill="#280068"
             fill-rule="nonzero"
             id="path4"
             style="fill:#01303f;fill-opacity:1" />
          <path
             d="m 255.569,84.452375 c -0.002,-4.829999 -1.035,-9.098 -3.124,-12.760999 l -124.263,71.550004 124.413,72.074 c 1.994,-3.60801 2.985,-7.79301 2.987,-12.518 0,0 0,-78.889 -0.013,-118.345005"
             fill="#390091"
             fill-rule="nonzero"
             id="path6"
             style="fill:#02577a;fill-opacity:1;stroke-width:1" />
          <text
             xml:space="preserve"
             style="font-style:normal;font-variant:normal;font-weight:normal;font-stretch:normal;font-size:193.878px;line-height:1.25;font-family:'Nimbus Roman';-inkscape-font-specification:'Nimbus Roman, ';fill:#ffffff;fill-opacity:1;stroke:none;stroke-width:2.01957"
             x="76.67952"
             y="203.44539"
             id="text1707-6"
             transform="scale(0.97530213,1.0253233)"
             inkscape:export-filename="/home/robert/Documents/logo.png"
             inkscape:export-xdpi="96"
             inkscape:export-ydpi="96"><tspan
               sodipodi:role="line"
               id="tspan1705-7"
               style="font-style:normal;font-variant:normal;font-weight:normal;font-stretch:normal;font-size:193.878px;font-family:'Nimbus Roman';-inkscape-font-specification:'Nimbus Roman, ';fill:#ffffff;fill-opacity:1;stroke-width:2.01957"
               x="76.67952"
               y="203.44539">F</tspan></text>
          <path
             id="path1709-5"
             style="fill:#ffffff;fill-opacity:1;stroke-width:0.817694"
             d="m 126.14137,25.325846 c -3.6639,0.0474 -7.32142,1.192329 -11.02132,3.400567 -11.01024,6.568784 -66.134361,38.517978 -82.560705,48.142933 -6.764807,3.961694 -10.057444,10.023474 -10.059081,17.904016 -0.0091,32.449178 8.36e-4,64.897718 -0.0091,97.347658 0.0016,3.88519 0.805871,7.32759 2.42939,10.29493 1.669066,3.05206 4.20133,5.60316 7.629687,7.61073 16.427142,9.62495 71.559249,41.5709 82.567049,48.14131 7.40302,4.41895 14.63119,4.57726 22.08869,0.22182 27.65363,-16.15265 55.34424,-32.23731 83.01007,-48.37266 3.42836,-2.00672 5.96061,-4.55952 7.62966,-7.60909 1.62109,-2.96738 2.4278,-6.40889 2.42942,-10.29489 0,0 -5.4e-4,-64.88165 -0.0113,-97.331627 -0.001,-3.972363 -0.84046,-7.48312 -2.53879,-10.495665 -1.66833,-2.962404 -4.16747,-5.445194 -7.5186,-7.40835 -27.6617,-16.135438 -55.35082,-32.220962 -83.00365,-48.372759 -3.72754,-2.176985 -7.39711,-3.226391 -11.06102,-3.178902 z m -0.0113,9.514218 c 3.35026,-0.04352 6.7078,0.915205 10.11624,2.905823 25.28561,14.76914 50.60427,29.479105 75.89805,44.233181 3.06424,1.795104 5.34842,4.065014 6.87384,6.773842 1.55294,2.754668 2.31982,5.963816 2.32145,9.596153 0.0102,29.672077 0.0102,88.999597 0.0102,88.999597 -0.002,3.55335 -0.73751,6.69971 -2.21982,9.41305 -1.52617,2.78853 -3.84218,5.1236 -6.97705,6.95855 -25.29751,14.75408 -50.61805,29.46172 -75.9044,44.23157 -6.81912,3.98274 -13.42829,3.83822 -20.19757,-0.20242 -10.0656,-6.00793 -60.47712,-35.21839 -75.498018,-44.01945 -3.134857,-1.83567 -5.452467,-4.16939 -6.97864,-6.96015 -1.484546,-2.71334 -2.218175,-5.86046 -2.219808,-9.41301 0.0094,-29.67211 -1.51e-4,-59.34275 0.0094,-89.014105 0.0016,-7.205971 3.011142,-12.749044 9.196883,-16.371597 15.020153,-8.801014 65.425423,-38.016283 75.493143,-44.022743 3.38315,-2.019197 6.72628,-3.064791 10.07654,-3.108219 z" />
        </g>
      </g>
    </g>
  </g>
</svg>
